<svg xmlns="http://www.w3.org/2000/svg" width="32" height="41.19" viewBox="0 0 32 41.19"><defs><style>.cls-1{fill:#e30b50;}.cls-2{fill:#bf0d4e;}</style></defs><title>marcador_dos</title><g id="Capa_2" data-name="Capa 2"><g id="Capa_1-2" data-name="Capa 1"><path class="cls-1" d="M31.88,15.85A15.94,15.94,0,0,0,15.94,0h0A15.94,15.94,0,0,0,0,15.94H0A15,15,0,0,0,3.05,25L15,40.73a1.19,1.19,0,0,0,1.89,0L28.82,25a15,15,0,0,0,3.06-9.15ZM16,23.32a7.43,7.43,0,1,1,7.43-7.43A7.43,7.43,0,0,1,16,23.32Z"/><path class="cls-2" d="M32,15.85A15.93,15.93,0,0,0,16.08,0V8.47h.06a7.43,7.43,0,0,1,0,14.85h-.06V41.19a1.18,1.18,0,0,0,.94-.46L29,25A15,15,0,0,0,32,15.89Z"/></g></g></svg>