<svg xmlns="http://www.w3.org/2000/svg" width="211.17" height="26.03" viewBox="0 0 211.17 26.03"><defs><style>.cls-1{fill:#fff;}</style></defs><title>suritag</title><g id="Capa_2" data-name="Capa 2"><g id="Capa_3" data-name="Capa 3"><path class="cls-1" d="M17.44,7.84H14.85l-.64-3.62a6.24,6.24,0,0,0-2.08-1.09,9.58,9.58,0,0,0-3-.44A6.6,6.6,0,0,0,4.92,3.85a3.64,3.64,0,0,0-1.46,3A3.33,3.33,0,0,0,4.94,9.62a14.1,14.1,0,0,0,4.81,1.93,13.72,13.72,0,0,1,6.07,2.92,6.28,6.28,0,0,1,2.07,4.78,5.85,5.85,0,0,1-2.49,4.92A10.63,10.63,0,0,1,8.88,26a13.2,13.2,0,0,1-5.19-1A10.5,10.5,0,0,1,0,22.57V17.86H2.57l.66,3.63a8.3,8.3,0,0,0,2.36,1.34,9.24,9.24,0,0,0,3.29.52A6.89,6.89,0,0,0,13,22.26a3.49,3.49,0,0,0,1.5-3,3.74,3.74,0,0,0-1.3-2.91,11,11,0,0,0-4.61-2,15.34,15.34,0,0,1-6.27-2.81A5.83,5.83,0,0,1,0,6.92,6.06,6.06,0,0,1,2.55,2,10.36,10.36,0,0,1,9.1,0a12.35,12.35,0,0,1,4.84.91,11,11,0,0,1,3.5,2.22Z"/><path class="cls-1" d="M40.36.37v2.2l-2.83.49V17.51a5.6,5.6,0,0,0,1.64,4.36,6.12,6.12,0,0,0,4.3,1.48A6.71,6.71,0,0,0,48,21.87a5.43,5.43,0,0,0,1.72-4.36V3.06L46.9,2.57V.37H56v2.2l-2.83.49V17.51a7.7,7.7,0,0,1-2.68,6.32,10.72,10.72,0,0,1-7,2.2,10.11,10.11,0,0,1-6.77-2.2,7.82,7.82,0,0,1-2.59-6.32V3.06l-2.83-.49V.37h9.08Z"/><path class="cls-1" d="M80,.38a9.64,9.64,0,0,1,6.34,1.84,6.37,6.37,0,0,1,2.2,5.2,5.48,5.48,0,0,1-1,3.27,6.87,6.87,0,0,1-2.94,2.24,5.15,5.15,0,0,1,3,2.2,7.24,7.24,0,0,1,.91,3.77v2a3.71,3.71,0,0,0,.3,1.71,1.21,1.21,0,0,0,1,.66l.84.11v2.24H88.75a3.06,3.06,0,0,1-2.84-1.39,6.41,6.41,0,0,1-.84-3.37v-2a4.59,4.59,0,0,0-1.2-3.32,4.26,4.26,0,0,0-3.21-1.25H75.17V23l2.83.49v2.19H68.92V23.47L71.75,23V3.06l-2.83-.49V.38H80Zm-4.85,11.3h4.5a6.44,6.44,0,0,0,4.17-1.1,3.93,3.93,0,0,0,1.3-3.2,4.13,4.13,0,0,0-1.25-3.16A5.56,5.56,0,0,0,80,3.06H75.17Z"/><path class="cls-1" d="M103.65,2.57V.37h9.09v2.2l-2.84.49V23l2.84.49v2.19h-9.09V23.47l2.83-.49V3.06Z"/><path class="cls-1" d="M146.27.37V6h-2.92l-.26-2.9h-5.61V23l2.83.49v2.19h-9.08V23.47l2.83-.49V3.06h-5.63L128.19,6h-2.94V.37Z"/><path class="cls-1" d="M155.42,23.47l1.87-.26L166.14.37h2.93l8.69,22.84,1.86.26v2.19h-7.26V23.47l1.91-.33-1.67-4.65H162.47l-1.72,4.65,1.91.33v2.19h-7.24Zm8.11-7.85h8L167.63,4.76h-.1Z"/><path class="cls-1" d="M211.17,22.79a11,11,0,0,1-3.28,2.2,13.18,13.18,0,0,1-5.64,1A10.6,10.6,0,0,1,194,22.46a13.26,13.26,0,0,1-3.21-9.24V12.8a13.4,13.4,0,0,1,3.17-9.26A10.77,10.77,0,0,1,202.37,0a12.81,12.81,0,0,1,4.94.88A11,11,0,0,1,210.9,3.2V7.78h-2.4l-.83-3.49a7.67,7.67,0,0,0-2.06-1.15,8.33,8.33,0,0,0-2.9-.45A7.58,7.58,0,0,0,196.4,5.5a11.36,11.36,0,0,0-2.22,7.27v.45a11.72,11.72,0,0,0,2.15,7.33,7,7,0,0,0,5.92,2.8,11,11,0,0,0,3.38-.43,9,9,0,0,0,2.12-1V16.42l-4.15-.18V13.72h7.57Z"/></g></g></svg>