<svg height="512pt" viewBox="-42 0 512 512.00103" width="512pt" xmlns="http://www.w3.org/2000/svg"><path d="m369.210938 332.417969v-102.90625c0-71.398438-44.515626-132.164063-106.136719-153.734375v-26.367188c.003906-27.246094-22.164063-49.410156-49.40625-49.410156-27.246094 0-49.410157 22.164062-49.410157 49.410156v26.367188c-61.621093 21.570312-106.136718 82.332031-106.136718 153.734375v102.90625c-16.875 13.097656-58.121094 50.472656-58.121094 102.933593 0 8.539063 6.925781 15.464844 15.464844 15.464844h111.878906c2.363281 16.160156 11.53125 30.921875 26.445312 42.210938 16.175782 12.234375 37.441407 18.972656 59.878907 18.972656s43.703125-6.738281 59.875-18.972656c14.917969-11.289063 24.085937-26.046875 26.445312-42.210938h111.878907c8.542968 0 15.464843-6.925781 15.464843-15.464844 0-52.464843-41.242187-89.835937-58.121093-102.933593zm-174.023438-283.007813c0-10.1875 8.289062-18.476562 18.480469-18.476562 10.1875 0 18.476562 8.289062 18.476562 18.476562v19.128906c-6.0625-.753906-12.226562-1.152343-18.480469-1.152343-6.253906 0-12.414062.398437-18.476562 1.148437zm18.476562 48.910156c68.714844 0 124.613282 58.851563 124.613282 131.191407v96.105469h-249.222656v-96.105469c0-72.339844 55.898437-131.191407 124.609374-131.191407zm.003907 382.746094c-26.210938 0-48.898438-13.179687-54.617188-30.25h109.234375c-5.722656 17.070313-28.40625 30.25-54.617187 30.25zm-180.976563-61.183594c7.132813-31.472656 34.023438-54.96875 44.832032-63.332031h272.324218c10.84375 8.332031 37.722656 31.703125 44.816406 63.332031zm0 0"/></svg>