<svg xmlns="http://www.w3.org/2000/svg" width="260.76" height="335.68" viewBox="0 0 260.76 335.68"><defs><style>.cls-1{fill:#e30b50;}.cls-2{fill:#bf0d4e;}</style></defs><title>marcador</title><g id="Capa_2" data-name="Capa 2"><g id="Capa_1-2" data-name="Capa 1"><path class="cls-1" d="M259.76,129.12A129.89,129.89,0,0,0,129.88,0h0A129.88,129.88,0,0,0,0,129.88H0a122,122,0,0,0,24.89,73.86l97.4,128.12a9.68,9.68,0,0,0,15.42,0l97.16-127.81a122,122,0,0,0,24.89-74.57ZM130.5,190A60.5,60.5,0,1,1,191,129.5,60.5,60.5,0,0,1,130.5,190Z"/><path class="cls-2" d="M260.76,129.12A129.89,129.89,0,0,0,131,0V69h.5a60.5,60.5,0,0,1,0,121H131V335.68a9.62,9.62,0,0,0,7.71-3.82l97.16-127.81a122,122,0,0,0,24.89-74.57Z"/></g></g></svg>