<?xml version="1.0" encoding="utf-8"?>
<!-- Generator: Adobe Illustrator 22.1.0, SVG Export Plug-In . SVG Version: 6.00 Build 0)  -->
<svg version="1.1" id="Capa_1" xmlns="http://www.w3.org/2000/svg" xmlns:xlink="http://www.w3.org/1999/xlink" x="0px" y="0px"
	 viewBox="0 0 64 64" style="enable-background:new 0 0 64 64;" xml:space="preserve">
<style type="text/css">
	.st0{fill:#CB4309;}
	.st1{fill:none;stroke:#434B54;stroke-width:2;stroke-miterlimit:10;}
</style>
<rect x="-73" y="-10" class="st0" width="37.2" height="10"/>
<g>
	<path class="st1" d="M18.2,26L27,44.7l9.7-23.1l9.2,26.6l11.3-26.6C53.2,11.3,43.2,4,31.5,4C16.4,4,4.1,16.3,4.1,31.5
		c0,0.4,0,0.7,0,1.1l6.7,7.4L18.2,26z"/>
	<path class="st1" d="M45.9,48.2l-9.2-26.6L27,44.7L18.2,26l-7.4,14.1l-6.7-7.4C4.7,47.3,16.7,59,31.5,59C46.7,59,59,46.7,59,31.5
		c0-3.5-0.7-6.8-1.8-9.9L45.9,48.2z"/>
</g>
</svg>
