<svg xmlns="http://www.w3.org/2000/svg" width="289.18" height="73.27" viewBox="0 0 289.18 73.27"><defs><style>.cls-1{fill:#fff;}.cls-2,.cls-3{fill:none;stroke:#fff;stroke-miterlimit:10;}.cls-2{stroke-width:3px;}.cls-3{stroke-width:5px;}</style></defs><title>logo_intro</title><g id="Capa_2" data-name="Capa 2"><g id="Capa_3" data-name="Capa 3"><path class="cls-1" d="M95.45,26.7H92.86l-.65-3.62A6.24,6.24,0,0,0,90.13,22a9.56,9.56,0,0,0-3-.44,6.62,6.62,0,0,0-4.19,1.16,3.66,3.66,0,0,0-1.46,3A3.34,3.34,0,0,0,83,28.48a14.12,14.12,0,0,0,4.8,1.93,13.66,13.66,0,0,1,6.07,2.92,6.25,6.25,0,0,1,2.08,4.78A5.85,5.85,0,0,1,93.41,43a10.67,10.67,0,0,1-6.53,1.86,13.18,13.18,0,0,1-5.18-1,10.45,10.45,0,0,1-3.7-2.5V36.72h2.58l.66,3.63a8.17,8.17,0,0,0,2.36,1.34,9.18,9.18,0,0,0,3.28.52A6.87,6.87,0,0,0,91,41.12a3.49,3.49,0,0,0,1.51-3,3.79,3.79,0,0,0-1.31-2.92,11,11,0,0,0-4.6-2,15.22,15.22,0,0,1-6.27-2.81A5.8,5.8,0,0,1,78,25.78a6.06,6.06,0,0,1,2.52-5,10.34,10.34,0,0,1,6.55-2,12.42,12.42,0,0,1,4.84.91A11,11,0,0,1,95.45,22Z"/><path class="cls-1" d="M118.37,19.23v2.2l-2.83.49V36.37a5.61,5.61,0,0,0,1.63,4.36,6.15,6.15,0,0,0,4.31,1.48A6.68,6.68,0,0,0,126,40.73a5.4,5.4,0,0,0,1.72-4.36V21.92l-2.83-.49v-2.2H134v2.2l-2.84.49V36.37a7.7,7.7,0,0,1-2.68,6.32,10.71,10.71,0,0,1-7,2.2,10.16,10.16,0,0,1-6.78-2.2,7.85,7.85,0,0,1-2.59-6.32V21.92l-2.83-.49v-2.2h9.09Z"/><path class="cls-1" d="M158,19.24q4.14,0,6.34,1.84a6.38,6.38,0,0,1,2.21,5.2,5.42,5.42,0,0,1-1,3.27,6.9,6.9,0,0,1-2.93,2.24,5.15,5.15,0,0,1,3,2.2,7.33,7.33,0,0,1,.91,3.77v2a3.87,3.87,0,0,0,.29,1.71,1.21,1.21,0,0,0,1,.66l.83.11v2.24h-1.84a3,3,0,0,1-2.84-1.39,6.41,6.41,0,0,1-.84-3.37v-2a4.59,4.59,0,0,0-1.2-3.32,4.26,4.26,0,0,0-3.22-1.25h-5.49v8.61l2.83.49v2.19h-9.08V42.33l2.83-.49V21.92l-2.83-.49V19.24H158Zm-4.85,11.3h4.5a6.44,6.44,0,0,0,4.17-1.1,3.94,3.94,0,0,0,1.31-3.2,4.1,4.1,0,0,0-1.26-3.16A5.54,5.54,0,0,0,158,21.92h-4.85Z"/><path class="cls-1" d="M181.65,21.43v-2.2h9.09v2.2l-2.83.49V41.84l2.83.49v2.19h-9.09V42.33l2.84-.49V21.92Z"/><path class="cls-1" d="M224.28,19.23v5.59h-2.92l-.26-2.9h-5.61V41.84l2.83.49v2.19h-9.09V42.33l2.83-.49V21.92h-5.63l-.24,2.9h-2.94V19.23Z"/><path class="cls-1" d="M233.42,42.33l1.88-.26,8.84-22.84h2.94l8.68,22.84,1.86.26v2.19h-7.26V42.33l1.91-.33-1.67-4.65H240.47L238.75,42l1.92.33v2.19h-7.25Zm8.11-7.85h8l-3.93-10.86h-.1Z"/><path class="cls-1" d="M289.18,41.65a11.09,11.09,0,0,1-3.29,2.2,13.15,13.15,0,0,1-5.64,1A10.63,10.63,0,0,1,272,41.32a13.26,13.26,0,0,1-3.21-9.24v-.42a13.35,13.35,0,0,1,3.18-9.26,10.75,10.75,0,0,1,8.43-3.54,12.78,12.78,0,0,1,4.94.88,10.91,10.91,0,0,1,3.59,2.32v4.58h-2.4l-.83-3.49A7.52,7.52,0,0,0,283.61,22a8.31,8.31,0,0,0-2.89-.45,7.59,7.59,0,0,0-6.32,2.81,11.41,11.41,0,0,0-2.21,7.27v.45a11.71,11.71,0,0,0,2.14,7.33,7,7,0,0,0,5.92,2.8,11.06,11.06,0,0,0,3.39-.43,9.22,9.22,0,0,0,2.12-1V35.28l-4.16-.18V32.58h7.58Z"/><line class="cls-2" x1="44.03" y1="21.95" x2="43.74" y2="16.67"/><line class="cls-2" x1="45.04" y1="40.11" x2="44.13" y2="23.69"/><ellipse class="cls-3" cx="26.45" cy="8.64" rx="24.32" ry="4.41" transform="translate(-1.12 4.86) rotate(-10.29)"/><path class="cls-3" d="M52.67,54.43c.43,2.4-7,5.75-16.55,7.49S18.43,63.13,18,60.73"/><path class="cls-3" d="M52.3,46.28c7.76.67,13.12,3,13.77,6.59C67.17,59,54.38,66.38,37.48,69.45S6,70.07,4.9,64c-.66-3.6,3.54-7.66,10.57-11"/><path class="cls-3" d="M52.06,41c.43,2.4-7.77,5.89-18.32,7.81S14.29,50.37,13.86,48"/><line class="cls-3" x1="17.99" y1="60.73" x2="2.51" y2="12.99"/><line class="cls-3" x1="52.67" y1="54.43" x2="50.38" y2="4.3"/></g></g></svg>