<?xml version="1.0" encoding="utf-8"?>
<!-- Generator: Adobe Illustrator 22.1.0, SVG Export Plug-In . SVG Version: 6.00 Build 0)  -->
<svg version="1.1" id="Capa_1" xmlns="http://www.w3.org/2000/svg" xmlns:xlink="http://www.w3.org/1999/xlink" x="0px" y="0px"
	 viewBox="0 0 211.2 26" style="enable-background:new 0 0 211.2 26;" xml:space="preserve">
<style type="text/css">
	.st0{fill:#E30B50;}
</style>
<title>suritag</title>
<g id="Capa_2_1_">
	<g id="Capa_3">
		<path class="st0" d="M35.7,10.9h-2.1L33.1,8c-0.5-0.4-1-0.7-1.6-0.9c-0.8-0.2-1.6-0.4-2.4-0.3c-1.2-0.1-2.4,0.2-3.3,0.9
			c-0.7,0.6-1.2,1.4-1.2,2.4c0,0.9,0.4,1.7,1.2,2.2c1.2,0.7,2.5,1.3,3.8,1.5c1.8,0.4,3.4,1.2,4.8,2.3c1.1,1,1.7,2.3,1.6,3.8
			c0,1.5-0.7,3-2,3.9c-1.5,1-3.3,1.5-5.2,1.5c-1.4,0-2.8-0.3-4.1-0.8c-1.1-0.4-2.1-1.1-2.9-1.9v-3.7h2l0.5,2.9
			c0.6,0.5,1.2,0.8,1.9,1.1c0.8,0.3,1.7,0.4,2.6,0.4c1.2,0.1,2.3-0.2,3.3-0.9c0.8-0.5,1.2-1.4,1.2-2.4c0-0.9-0.4-1.7-1-2.3
			c-1.1-0.8-2.3-1.3-3.7-1.6c-1.8-0.4-3.5-1.1-5-2.2c-1.2-0.9-1.8-2.2-1.8-3.7c0-1.6,0.8-3,2-3.9c1.5-1.1,3.3-1.7,5.2-1.6
			c1.3,0,2.6,0.2,3.8,0.7c1,0.4,2,1,2.8,1.8V10.9z"/>
		<path class="st0" d="M53.9,5v1.7l-2.2,0.4v11.5c-0.1,1.3,0.4,2.5,1.3,3.5c0.9,0.8,2.2,1.2,3.4,1.2c1.3,0.1,2.6-0.4,3.6-1.2
			c1-0.9,1.5-2.2,1.4-3.5V7.1l-2.2-0.4V5h7.2v1.7L64,7.1v11.5c0.1,1.9-0.7,3.8-2.1,5c-1.6,1.2-3.6,1.8-5.5,1.7
			c-1.9,0.1-3.8-0.5-5.4-1.7c-1.4-1.3-2.2-3.1-2.1-5V7.1l-2.2-0.4V5H53.9L53.9,5z"/>
		<path class="st0" d="M85.3,5c1.8-0.1,3.6,0.4,5,1.5c1.2,1,1.8,2.6,1.7,4.1c0,0.9-0.3,1.8-0.8,2.6c-0.6,0.8-1.4,1.4-2.3,1.8
			c1,0.3,1.8,0.9,2.4,1.7c0.5,0.9,0.8,1.9,0.7,3v1.6c0,0.5,0.1,0.9,0.2,1.4c0.2,0.3,0.5,0.5,0.8,0.5l0.7,0.1V25h-1.5
			c-0.9,0.1-1.8-0.3-2.3-1.1c-0.5-0.8-0.7-1.7-0.7-2.7v-1.6c0-1-0.3-1.9-1-2.6c-0.7-0.7-1.6-1-2.5-1h-4.4v6.9l2.2,0.4v1.7h-7.2v-1.8
			l2.2-0.4V7.1l-2.2-0.4V5H85.3z M81.5,14H85c1.2,0.1,2.3-0.2,3.3-0.9c0.7-0.6,1.1-1.6,1-2.5c0-0.9-0.3-1.9-1-2.5
			c-0.9-0.7-2-1-3.1-0.9h-3.8L81.5,14z"/>
		<path class="st0" d="M104.1,6.7V5h7.2v1.7L109,7.1v15.8l2.3,0.4v1.7h-7.2v-1.8l2.2-0.4V7.1L104.1,6.7z"/>
		<path class="st0" d="M137.8,5v4.5h-2.3l-0.2-2.3h-4.4v15.8l2.2,0.4v1.7h-7.2v-1.8l2.2-0.4V7.1h-4.5l-0.2,2.3h-2.3V5H137.8z"/>
		<path class="st0" d="M145.1,23.3l1.5-0.2l7-18.1h2.3l6.9,18.1l1.5,0.2V25h-5.8v-1.7L160,23l-1.3-3.7h-8l-1.4,3.7l1.5,0.3V25h-5.7
			V23.3z M151.5,17.1h6.3l-3.1-8.6h-0.1L151.5,17.1z"/>
		<path class="st0" d="M189.3,22.8c-0.8,0.7-1.6,1.3-2.6,1.7c-1.4,0.6-2.9,0.9-4.5,0.8c-2.5,0.1-4.9-0.9-6.5-2.8
			c-1.8-2-2.7-4.6-2.5-7.3v-0.3c-0.1-2.7,0.8-5.3,2.5-7.3c1.7-1.9,4.1-2.9,6.7-2.8c1.3,0,2.7,0.2,3.9,0.7c1.1,0.4,2,1,2.8,1.8v3.6
			h-1.9l-0.7-2.8c-0.5-0.4-1-0.7-1.6-0.9c-0.7-0.3-1.5-0.4-2.3-0.4c-1.9-0.1-3.8,0.7-5,2.2c-1.2,1.7-1.9,3.7-1.8,5.8v0.4
			c-0.1,2.1,0.5,4.1,1.7,5.8c1.1,1.5,2.9,2.3,4.7,2.2c0.9,0,1.8-0.1,2.7-0.3c0.6-0.2,1.2-0.5,1.7-0.8v-4.4l-3.3-0.1v-2h6V22.8z"/>
	</g>
</g>
</svg>
