<svg xmlns="http://www.w3.org/2000/svg" width="139.08" height="145.33" viewBox="0 0 139.08 145.33"><defs><style>.cls-1{fill:#fff;}.cls-2{fill:none;stroke:#fff;stroke-miterlimit:10;stroke-width:5px;}</style></defs><title>isotipo_suritag_1</title><g id="Capa_2" data-name="Capa 2"><g id="Capa_2-2" data-name="Capa 2"><path class="cls-1" d="M16.57,135.44H14.44l-.37-1.95a3.78,3.78,0,0,0-1.09-.41,6.13,6.13,0,0,0-1.51-.18,2.89,2.89,0,0,0-1.81.5A1.52,1.52,0,0,0,9,134.67a1.39,1.39,0,0,0,.67,1.19,8.91,8.91,0,0,0,2.3,1,9,9,0,0,1,3.57,1.73,3.58,3.58,0,0,1,1.22,2.82,3.36,3.36,0,0,1-1.45,2.88,6.25,6.25,0,0,1-3.8,1.06,8.26,8.26,0,0,1-3.06-.54,6.43,6.43,0,0,1-2.27-1.48v-3H8.41l.3,2a3.55,3.55,0,0,0,1.17.58,5.62,5.62,0,0,0,1.65.23,2.84,2.84,0,0,0,1.78-.48,1.57,1.57,0,0,0,.61-1.28,1.67,1.67,0,0,0-.58-1.32,6.1,6.1,0,0,0-2-.94,11.46,11.46,0,0,1-3.83-1.73,3.32,3.32,0,0,1-1.3-2.76,3.37,3.37,0,0,1,1.47-2.82,6.06,6.06,0,0,1,3.68-1.13,8.41,8.41,0,0,1,3,.5,6.84,6.84,0,0,1,2.26,1.32Z"/><path class="cls-1" d="M29.63,130.9v1.72l-1.53.29v7.43a2.74,2.74,0,0,0,.76,2.1,2.92,2.92,0,0,0,2.07.7,3,3,0,0,0,2.1-.69,2.72,2.72,0,0,0,.76-2.11v-7.43l-1.51-.29V130.9h5.89v1.72l-1.52.29v7.43A4.53,4.53,0,0,1,35.07,144a6.33,6.33,0,0,1-4.14,1.3,6.26,6.26,0,0,1-4.11-1.3,4.52,4.52,0,0,1-1.57-3.69v-7.43l-1.51-.29V130.9h5.89Z"/><path class="cls-1" d="M51.4,130.9A5.86,5.86,0,0,1,55.19,132a3.71,3.71,0,0,1,1.38,3.06,3.12,3.12,0,0,1-.57,1.87,4.1,4.1,0,0,1-1.69,1.28,3.06,3.06,0,0,1,1.81,1.23,3.9,3.9,0,0,1,.55,2.15v.72a1.22,1.22,0,0,0,.19.73.82.82,0,0,0,.61.3l.35.05v1.72H56.35a2.33,2.33,0,0,1-2-.75,3.19,3.19,0,0,1-.56-1.94v-.81a2.33,2.33,0,0,0-.55-1.63,2.14,2.14,0,0,0-1.56-.62H49.37v3.75l1.53.29v1.71H45v-1.71l1.51-.29V132.91L45,132.62V130.9H51.4Zm-2,6.27h2a2.66,2.66,0,0,0,1.78-.51,1.79,1.79,0,0,0,.6-1.46,2,2,0,0,0-.59-1.53,2.4,2.4,0,0,0-1.74-.57h-2Z"/><path class="cls-1" d="M64.75,132.62V130.9h5.89v1.72l-1.53.29v10.21l1.53.29v1.71H64.75v-1.71l1.52-.29V132.91Z"/><path class="cls-1" d="M90.24,130.9v3.79H88.05l-.11-1.59H85.32v10l1.52.29v1.71h-5.9v-1.71l1.53-.29v-10H79.86l-.12,1.59H77.57V130.9Z"/><path class="cls-1" d="M95.27,143.41l1-.14,4.33-12.37h2.92l4.29,12.37,1,.14v1.71H104v-1.71l1-.17-.62-2H99.75l-.63,2,1,.17v1.71H95.27Zm5.15-4.23h3.26l-1.6-5H102Z"/><path class="cls-1" d="M127,143.54a6.31,6.31,0,0,1-2,1.24,9,9,0,0,1-3.36.55,6.15,6.15,0,0,1-4.69-1.93,7.08,7.08,0,0,1-1.81-5v-.48a7.52,7.52,0,0,1,1.79-5.2,5.89,5.89,0,0,1,4.65-2,8.53,8.53,0,0,1,3,.53,6.58,6.58,0,0,1,2.3,1.44v2.86h-2.11l-.4-1.9a2.85,2.85,0,0,0-1-.53,4.71,4.71,0,0,0-1.47-.2,3.41,3.41,0,0,0-2.9,1.37,5.86,5.86,0,0,0-1,3.61v.5a5.47,5.47,0,0,0,1,3.47,3.51,3.51,0,0,0,2.93,1.29,5.25,5.25,0,0,0,1.39-.15,2.8,2.8,0,0,0,.84-.34v-2.41l-2-.16v-2H127Z"/></g><g id="Capa_3" data-name="Capa 3"><path class="cls-2" d="M88.75,63.74V43.34a8.91,8.91,0,0,1,8.9-8.91h30a8.9,8.9,0,0,1,8.9,8.91V48a8.9,8.9,0,0,1-8.9,8.91H99l-7.45,8A1.63,1.63,0,0,1,88.75,63.74Z"/><path class="cls-2" d="M37.31,37.68V24.52A6.48,6.48,0,0,0,30.83,18H9A6.48,6.48,0,0,0,2.5,24.52v3.37A6.48,6.48,0,0,0,9,34.37H29.84l4.27,4.57A1.85,1.85,0,0,0,37.31,37.68Z"/><path class="cls-2" d="M65.75,32l7.68-16.54a10.63,10.63,0,0,0,1-4.47v-.32A8.17,8.17,0,0,0,66.25,2.5h-.5a8.17,8.17,0,0,0-8.17,8.17h0a10.64,10.64,0,0,0,.85,4.16Z"/><circle class="cls-1" cx="66" cy="11" r="3.42"/><line class="cls-2" x1="71.09" y1="68.51" x2="70.8" y2="63.23"/><line class="cls-2" x1="72.09" y1="86.67" x2="71.19" y2="70.25"/><ellipse class="cls-2" cx="53.5" cy="55.2" rx="24.32" ry="4.41" transform="translate(-9 10.44) rotate(-10.29)"/><path class="cls-2" d="M79.73,101c.43,2.39-7,5.75-16.55,7.49s-17.7,1.2-18.13-1.2"/><path class="cls-2" d="M79.36,92.84c7.75.67,13.11,3,13.77,6.59,1.1,6.09-11.7,13.51-28.59,16.58s-31.48.62-32.59-5.47c-.65-3.6,3.55-7.66,10.58-11"/><path class="cls-2" d="M79.11,87.6c.44,2.4-7.76,5.89-18.31,7.81s-19.45,1.52-19.89-.87"/><line class="cls-2" x1="45.05" y1="107.29" x2="29.57" y2="59.55"/><line class="cls-2" x1="79.73" y1="101" x2="77.43" y2="50.86"/></g></g></svg>