<?xml version="1.0" encoding="utf-8"?>
<!-- Generator: Adobe Illustrator 22.1.0, SVG Export Plug-In . SVG Version: 6.00 Build 0)  -->
<svg version="1.1" id="Capa_1" xmlns="http://www.w3.org/2000/svg" xmlns:xlink="http://www.w3.org/1999/xlink" x="0px" y="0px"
	 viewBox="0 0 64 64" style="enable-background:new 0 0 64 64;" xml:space="preserve">
<style type="text/css">
	.st0{fill:#434B54;}
</style>
<g>
	<path class="st0" d="M32.2,56.6L32.2,56.6c-3.4,0-6.5-1.5-8.7-4L5.3,31.1C1.9,27,1,21.5,2.9,16.5C4.8,11.6,9,8.3,14.1,7.7
		c0.7-0.1,1.3-0.1,2-0.1c6.6,0,12.6,4,16.3,10.6c3.9-7,10.5-11,17.3-10.6c5.3,0.3,9.8,3.5,11.9,8.5c2.2,5.1,1.3,10.9-2.4,15.1
		L40.8,52.6C38.6,55.1,35.5,56.6,32.2,56.6z M16.1,10.2c-0.6,0-1.1,0-1.7,0.1c-4.1,0.5-7.5,3.2-9.1,7.1c-1.6,4.1-0.8,8.6,2,11.9
		l18.2,21.4c1.7,2,4.1,3.1,6.7,3.1l0,0c2.5,0,5-1.1,6.6-3l18.5-21.4c2.9-3.4,3.7-8.1,1.9-12.3c-1.7-4.1-5.3-6.6-9.6-6.9
		c-0.3,0-0.5,0-0.8,0c-6.1,0-11.8,4.2-14.9,11l0.1,0.1l-0.8,1.4l-1.4,0l-0.8-1.2l0.1-0.3C27.9,14.4,22.2,10.2,16.1,10.2z"/>
</g>
</svg>
