<?xml version="1.0" encoding="utf-8"?>
<!-- Generator: Adobe Illustrator 22.1.0, SVG Export Plug-In . SVG Version: 6.00 Build 0)  -->
<svg version="1.1" id="Capa_1" xmlns="http://www.w3.org/2000/svg" xmlns:xlink="http://www.w3.org/1999/xlink" x="0px" y="0px"
	 viewBox="0 0 64 64" style="enable-background:new 0 0 64 64;" xml:space="preserve">
<style type="text/css">
	.st0{fill:#464747;}
	.st1{fill:#FFFFFF;}
	.st2{fill:#B7B7B7;}
	.st3{fill:none;}
	.st4{fill:#FFFFFF;stroke:#464747;stroke-width:0.5;stroke-miterlimit:10;}
	.st5{fill:#FFFFFF;stroke:#464747;stroke-width:0.25;stroke-miterlimit:10;}
	.st6{fill:none;stroke:#464747;stroke-width:0.75;stroke-miterlimit:10;}
	.st7{fill:#FFFFFF;stroke:#0C0C0C;stroke-width:0.5;stroke-miterlimit:10;}
	.st8{fill:#F3F3F3;}
	.st9{fill:#141199;}
	.st10{fill:#D80707;}
	.st11{fill:#494949;}
	.st12{fill:none;stroke:#494949;stroke-miterlimit:10;}
	.st13{fill:#AFAFAF;}
	.st14{fill:#151819;}
	.st15{fill:#989899;}
	.st16{fill:#CB4309;}
	.st17{fill:#FCFCFC;}
	.st18{fill:#434B54;}
</style>
<text transform="matrix(1 0 0 1 -499.4029 -146.8149)" style="fill:#636668; font-family:'HelveticaNeueLTCom-Th'; font-size:16.5396px;">Bares</text>
<g>
	
		<text transform="matrix(1 0 0 1 -467.6801 -150.8157)" style="fill:#636668; font-family:'HelveticaNeueLTCom-Th'; font-size:16.5396px;">Restaurantes</text>
</g>
<g>
	
		<text transform="matrix(1 0 0 1 -140.0435 -146.8149)" style="fill:#636668; font-family:'HelveticaNeueLTCom-Th'; font-size:16.5396px;">Eventos</text>
</g>
<g>
	<path class="st0" d="M-428.8-92.9c-2.8,0-5.6,0-8.5,0c0-0.1,0-0.1,0-0.2c0.9-0.1,1.9-0.2,2.8-0.2c1-0.1,1.3-0.4,1.3-1.2
		c-0.1-1.9,0-3.8,0-5.7c0-0.9-0.4-1.6-1.7-1.9c-2.2-0.6-3.4-1.9-3.3-3.6c0.1-2.3,0.6-4.6,0.9-6.8c0-0.2,0.4-0.4,0.6-0.4
		c2.6,0,5.3,0,8.2,0c0.3,2.4,0.7,4.7,0.8,7c0.1,1.9-1.2,3.3-3.7,4c-1,0.2-1.3,0.8-1.4,1.5c0,2.1-0.1,4.2,0,6.4c0,0.3,0.6,0.7,1,0.8
		c1,0.2,2,0.2,3,0.3C-428.8-93-428.8-92.9-428.8-92.9z M-433-112.4c-1,0-2.1,0-3.1,0c-0.3,0-0.9,0.3-0.9,0.5c-0.3,2-0.8,4.1-0.8,6.1
		c0,2,2.3,3.4,4.9,3.4c2.6,0,4.8-1.6,4.7-3.5c-0.1-2-0.5-4-0.8-5.9c0-0.2-0.6-0.5-0.9-0.6C-431-112.5-432-112.4-433-112.4z"/>
	<path class="st0" d="M-437.2-107.5c2.8,0,5.6,0,8.4,0c0.6,1.6,0,3.1-1.6,4c-1.4,0.8-3.4,0.8-4.9,0.1
		C-437.1-104.1-437.7-105.5-437.2-107.5z"/>
</g>
<g>
	<path class="st0" d="M-415.6-45.1c-3.6,0-7.3,0-10.9,0c0-0.1,0-0.1,0-0.2c1.2-0.1,2.4-0.2,3.6-0.3c1.2-0.1,1.7-0.6,1.7-1.5
		c-0.1-2.5,0-4.9,0-7.4c0-1.2-0.5-2-2.3-2.5c-2.9-0.8-4.4-2.5-4.3-4.6c0.1-2.9,0.7-5.9,1.2-8.8c0-0.2,0.5-0.5,0.8-0.5
		c3.4,0,6.8,0,10.5,0c0.4,3.1,0.9,6.1,1.1,9c0.1,2.4-1.5,4.3-4.8,5.1c-1.3,0.3-1.7,1-1.7,1.9c0,2.7-0.1,5.5,0,8.2
		c0,0.4,0.8,0.9,1.3,1c1.3,0.2,2.6,0.3,3.9,0.4C-415.5-45.2-415.6-45.2-415.6-45.1z M-421-70.3c-1.3,0-2.7-0.1-4,0
		c-0.4,0-1.1,0.4-1.1,0.7c-0.4,2.6-1,5.2-1,7.9c0,2.5,2.9,4.4,6.3,4.4c3.3,0,6.1-2,6-4.5c-0.1-2.6-0.6-5.1-1.1-7.6
		c0-0.3-0.8-0.7-1.2-0.7C-418.4-70.3-419.7-70.3-421-70.3z"/>
	<path class="st0" d="M-426.4-63.9c3.6,0,7.2,0,10.8,0c0.7,2,0,4-2.1,5.1c-1.8,1-4.4,1.1-6.3,0.2C-426.2-59.6-427-61.4-426.4-63.9z"
		/>
</g>
<g>
	<path class="st0" d="M-468.6,62.7c-7.9,0-15.9,0-23.8,0c0-0.1,0-0.3-0.1-0.4c2.6-0.2,5.3-0.5,7.9-0.7c2.7-0.2,3.7-1.2,3.6-3.2
		c-0.2-5.4-0.1-10.7,0-16.1c0-2.6-1.1-4.4-4.9-5.4c-6.2-1.7-9.6-5.4-9.4-10.1c0.3-6.4,1.6-12.9,2.6-19.3c0.1-0.4,1.1-1.1,1.7-1.1
		c7.4-0.1,14.9-0.1,23-0.1c0.8,6.7,2,13.2,2.3,19.7c0.2,5.3-3.3,9.3-10.5,11.1c-2.8,0.7-3.8,2.2-3.8,4.1c-0.1,6-0.2,11.9,0.1,17.9
		c0,0.8,1.7,2,2.8,2.3c2.7,0.5,5.7,0.6,8.5,0.8C-468.6,62.4-468.6,62.5-468.6,62.7z M-480.4,7.7c-2.9,0-5.9-0.1-8.7,0.1
		c-0.9,0.1-2.4,0.9-2.5,1.5c-0.9,5.7-2.2,11.5-2.3,17.2c-0.1,5.5,6.4,9.6,13.7,9.5c7.2-0.1,13.4-4.4,13.2-9.9
		c-0.2-5.6-1.3-11.2-2.3-16.7c-0.1-0.6-1.7-1.5-2.7-1.6C-474.8,7.5-477.6,7.7-480.4,7.7z"/>
	<path class="st0" d="M-492.3,21.6c7.9,0,15.7,0,23.6,0c1.6,4.4-0.1,8.8-4.5,11.2c-4,2.2-9.5,2.3-13.8,0.4
		C-491.8,30.9-493.7,27.1-492.3,21.6z"/>
</g>
<ellipse class="st0" cx="-351" cy="-108.8" rx="1.2" ry="1.3"/>
<ellipse class="st0" cx="-343.7" cy="-108.8" rx="1.2" ry="1.3"/>
<path class="st0" d="M-339-93h-16.5c-1.6,0-2.8-1.5-2.8-3.6l-0.1-11.2c0-1.9,1.1-3,2.8-3h16.5c1.1,0,2.5,0.5,2.5,3.1v11.1
	C-336.5-94.4-337.5-93-339-93z"/>
<path class="st0" d="M-343.7-109.9c-0.5,0-1,0.5-1,1.1c0,0.6,0.4,1.1,1,1.1s1-0.5,1-1.1C-342.7-109.4-343.2-109.9-343.7-109.9z"/>
<path class="st0" d="M-351-109.9c-0.5,0-1,0.5-1,1.1c0,0.6,0.4,1.1,1,1.1c0.5,0,1-0.5,1-1.1C-350.1-109.4-350.5-109.9-351-109.9z"/>
<g>
	<rect x="-356.6" y="-106.1" class="st1" width="18.5" height="9.8"/>
</g>
<g>
	<rect x="-351.6" y="-104.7" class="st2" width="1.6" height="1.6"/>
</g>
<g>
	<rect x="-349.5" y="-104.7" class="st2" width="1.6" height="1.6"/>
</g>
<g>
	<rect x="-347.5" y="-104.7" class="st2" width="1.6" height="1.6"/>
</g>
<g>
	<rect x="-345.4" y="-104.7" class="st2" width="1.6" height="1.6"/>
</g>
<g>
	<rect x="-343.3" y="-104.7" class="st2" width="1.6" height="1.6"/>
</g>
<g>
	<rect x="-351.6" y="-102.6" class="st2" width="1.6" height="1.6"/>
</g>
<g>
	<rect x="-353.7" y="-102.6" class="st2" width="1.6" height="1.6"/>
</g>
<g>
	<rect x="-349.5" y="-102.6" class="st2" width="1.6" height="1.6"/>
</g>
<g>
	<rect x="-347.5" y="-102.6" class="st2" width="1.6" height="1.6"/>
</g>
<g>
	<rect x="-345.4" y="-102.6" class="st2" width="1.6" height="1.6"/>
</g>
<g>
	<rect x="-343.3" y="-102.6" class="st2" width="1.6" height="1.6"/>
</g>
<g>
	<rect x="-351.6" y="-100.4" class="st2" width="1.6" height="1.6"/>
</g>
<g>
	<rect x="-353.7" y="-100.4" class="st2" width="1.6" height="1.6"/>
</g>
<g>
	<rect x="-349.5" y="-100.4" class="st2" width="1.6" height="1.6"/>
</g>
<g>
	<rect x="-347.5" y="-100.4" class="st2" width="1.6" height="1.6"/>
</g>
<g>
	<rect x="-345.4" y="-100.4" class="st2" width="1.6" height="1.6"/>
</g>
<g>
	<path class="st3" d="M-235-187h-1v-0.9c-1,0-3.4-0.3-4.9-0.8c1.5,1.6,3.1,2.5,5,2.5c1.9,0,3.3-0.9,4.8-2.4
		c-1.1,0.4-2.9,0.6-3.9,0.7V-187z"/>
	<path class="st0" d="M-235-187.9c1-0.1,2.7-0.4,3.8-0.8c1.1-1.1,2.2-2.3,3-4.3h-6.8V-187.9z"/>
	<path class="st0" d="M-247.5-198h-3.4c0.5,1,1,2,1.7,3h2.5C-247-196-247.3-197-247.5-198z"/>
	<path class="st0" d="M-247.8-208h-3.7c-0.3,1-0.5,1-0.6,3h4C-248-207-247.9-207-247.8-208z"/>
	<path class="st0" d="M-236-220c-1,0-3.4,0.5-4.9,1c-1,1-2.1,2-2.8,4h7.7V-220z"/>
	<path class="st0" d="M-235-211h8.4c-0.2,0-0.6,0-0.9-3h-7.5V-211z"/>
	<path class="st0" d="M-248-203h-4c0.1,1,0.2,1,0.5,3h3.8C-247.9-202-248-202-248-203z"/>
	<path class="st0" d="M-245.5-198c0.2,1,0.5,2,0.9,3h8.7v-3H-245.5z"/>
	<path class="st0" d="M-236-214h-8.5c-0.4,3-0.7,3-0.9,3h9.5V-214z"/>
	<path class="st0" d="M-244.8-217.1c-0.9,0.6-1.8,1.1-2.6,2.1h1.5C-245.5-216-245.1-216.4-244.8-217.1z"/>
	<path class="st0" d="M-246.6-214h-2.4c-0.7,3-1.3,3-1.8,3h3.4C-247.2-211-246.9-211-246.6-214z"/>
	<path class="st0" d="M-224.7-215c-0.8-1-1.7-1.5-2.7-2.1c0.4,0.7,0.8,1.1,1.1,2.1H-224.7z"/>
	<path class="st0" d="M-235-215h6.7c-0.7-2-1.9-3-2.8-4c-1.1-0.4-2.8-0.8-3.8-0.9V-215z"/>
	<path class="st0" d="M-225.5-214c0.3,3,0.6,3,0.9,3h3.5c-0.5,0-1.1,0-1.8-3H-225.5z"/>
	<path class="st0" d="M-224.3-200h3.9c0.3-2,0.4-2,0.5-3h-4.1C-224-202-224.1-202-224.3-200z"/>
	<path class="st0" d="M-224-205h4.1c-0.1-2-0.3-2-0.6-3h-3.8C-224.2-207-224.1-207-224-205z"/>
	<path class="st0" d="M-225.4-195h2.6c0.7-1,1.3-2,1.7-3h-3.5C-224.8-197-225.1-196-225.4-195z"/>
	<path class="st0" d="M-235-200h8.8c0.1-2,0.2-2,0.3-3h-9.1V-200z"/>
	<path class="st0" d="M-235-205h9c0-2-0.1-2-0.3-3h-8.8V-205z"/>
	<path class="st0" d="M-236-208h-9.8c-0.2,1-0.2,1-0.3,3h10.1V-208z"/>
	<path class="st0" d="M-236-193h-7.9c0.8,2,1.9,3.1,3,4.2c1.5,0.5,3.9,0.9,4.9,0.9V-193z"/>
	<path class="st0" d="M-235-195h7.6c0.4-1,0.6-2,0.9-3h-8.5V-195z"/>
	<path class="st0" d="M-236-203h-10.1c0,1,0.1,1,0.3,3h9.9V-203z"/>
	<path class="st0" d="M-247.6-193c0.9,1,1.8,1.7,2.9,2.4c-0.4-0.7-0.8-1.4-1.2-2.4H-247.6z"/>
	<path class="st0" d="M-227.4-190.5c1.1-0.7,2.1-1.5,3-2.5h-1.8C-226.5-192-226.9-191.3-227.4-190.5z"/>
	<path class="st1" d="M-245.5-198h-2c0.2,1,0.5,2,0.8,3h2C-245-196-245.3-197-245.5-198z"/>
	<path class="st1" d="M-244.5-214h-2c-0.3,3-0.6,3-0.9,3h2C-245.2-211-244.9-211-244.5-214z"/>
	<path class="st1" d="M-246.1-203h-1.9c0,1,0.1,1,0.2,3h1.9C-246-202-246.1-202-246.1-203z"/>
	<path class="st1" d="M-226-205h1.9c0-2-0.1-2-0.3-3h-1.9C-226.1-207-226-207-226-205z"/>
	<path class="st1" d="M-226.2-200h1.9c0.1-2,0.2-2,0.2-3h-1.9C-226-202-226.1-202-226.2-200z"/>
	<path class="st1" d="M-245.8-208h-1.9c-0.1,1-0.2,1-0.3,3h1.9C-246.1-207-246-207-245.8-208z"/>
	<path class="st1" d="M-227.4-195h2c0.3-1,0.6-2,0.8-3h-2C-226.8-197-227.1-196-227.4-195z"/>
	<path class="st1" d="M-243.9-193h-2.1c0.4,1,0.8,1.7,1.2,2.5c1.1,0.7,2.3,1.3,3.6,1.7C-242.2-189.9-243.1-191-243.9-193z"/>
	<path class="st1" d="M-228.2-193c-0.8,2-1.7,3.2-2.8,4.3c1.3-0.4,2.5-1,3.6-1.7c0.5-0.8,0.9-1.5,1.2-2.5H-228.2z"/>
	<path class="st1" d="M-228.3-215h2.1c-0.3-1-0.7-1.7-1.1-2.3c-1.1-0.7-2.3-1.2-3.6-1.6C-230-217.9-229.1-217-228.3-215z"/>
	<path class="st1" d="M-243.7-215c0.7-2,1.6-3,2.6-4c-1.3,0.4-2.5,1.1-3.6,1.8c-0.4,0.6-0.7,1.2-1,2.2H-243.7z"/>
	<path class="st1" d="M-226.6-211h2c-0.2,0-0.5,0-0.9-3h-2C-227.2-211-226.8-211-226.6-211z"/>
	<path class="st1" d="M-224-203.8c0,0.3,0,0.8,0,0.8h4.1c0,0,0-0.6,0-0.8c0-0.4,0-1.2,0-1.2h-4.1C-224-205-224-204.2-224-203.8z"/>
	<path class="st1" d="M-235-203h9.1c0,0,0-0.6,0-0.8c0-0.4,0-1.2,0-1.2h-9V-203z"/>
	<path class="st1" d="M-236-205h-10.1c0,0,0,0.8,0,1.2c0,0.3,0,0.8,0,0.8h10.1V-205z"/>
	<path class="st1" d="M-248.1-203.8c0-0.4,0-1.2,0-1.2h-4c0,0,0,0.8,0,1.2c0,0.3,0,0.8,0,0.8h4C-248.1-203-248.1-203.6-248.1-203.8z
		"/>
	<path class="st1" d="M-246.1-203.8c0-0.4,0-1.2,0-1.2h-1.9c0,0,0,0.8,0,1.2c0,0.3,0,0.8,0,0.8h1.9
		C-246.1-203-246.1-203.6-246.1-203.8z"/>
	<path class="st1" d="M-225.9-203.8c0,0.3,0,0.8,0,0.8h1.9c0,0,0-0.6,0-0.8c0-0.4,0-1.2,0-1.2h-1.9
		C-225.9-205-225.9-204.2-225.9-203.8z"/>
	<path class="st1" d="M-235-198h8.5c0.1-1,0.2-1,0.3-2h-8.8V-198z"/>
	<path class="st1" d="M-236-200h-9.9c0.1,1,0.2,1,0.3,2h9.5V-200z"/>
	<path class="st1" d="M-224.6-198h3.5c0.2-1,0.5-1,0.6-2h-3.9C-224.3-199-224.4-199-224.6-198z"/>
	<path class="st1" d="M-247.8-200h-3.8c0.2,1,0.4,1,0.6,2h3.4C-247.6-199-247.7-199-247.8-200z"/>
	<path class="st1" d="M-226.5-198h2c0.1-1,0.2-1,0.3-2h-1.9C-226.3-199-226.4-199-226.5-198z"/>
	<path class="st1" d="M-245.9-200h-1.9c0.1,1,0.2,1,0.3,2h2C-245.7-199-245.8-199-245.9-200z"/>
	<path class="st1" d="M-246.7-195h-2.5c0.5,1,1,2,1.6,2h1.7C-246.2-193-246.4-194-246.7-195z"/>
	<path class="st1" d="M-236-195h-8.7c0.2,1,0.5,2,0.8,2h7.9V-195z"/>
	<path class="st1" d="M-226.1-193h1.8c0.6,0,1.1-1,1.6-2h-2.6C-225.6-194-225.9-193-226.1-193z"/>
	<path class="st1" d="M-235-195v2h6.8c0.3,0,0.5-1,0.8-2H-235z"/>
	<path class="st1" d="M-228.2-193h2.1c0.3,0,0.5-1,0.7-2h-2C-227.6-194-227.9-193-228.2-193z"/>
	<path class="st1" d="M-246.7-195c0.2,1,0.5,2,0.7,2h2.1c-0.3,0-0.5-1-0.8-2H-246.7z"/>
	<path class="st1" d="M-247.4-211h-3.4c-0.3,1-0.5,2-0.7,3h3.7C-247.7-209-247.6-210-247.4-211z"/>
	<path class="st1" d="M-236-211h-9.5c-0.1,1-0.3,2-0.3,3h9.8V-211z"/>
	<path class="st1" d="M-224.3-208h3.8c-0.2-1-0.4-2-0.7-3h-3.5C-224.5-210-224.4-209-224.3-208z"/>
	<path class="st1" d="M-235-208h8.8c-0.1-1-0.2-2-0.3-3h-8.4V-208z"/>
	<path class="st1" d="M-226.2-208h1.9c-0.1-1-0.2-2-0.3-3h-2C-226.5-210-226.3-209-226.2-208z"/>
	<path class="st1" d="M-245.5-211h-2c-0.1,1-0.2,2-0.3,3h1.9C-245.7-209-245.6-210-245.5-211z"/>
	<path class="st1" d="M-236-214v-1h-7.7c-0.3,0-0.6,1-0.8,1H-236z"/>
	<path class="st1" d="M-225.5-214h2.5c-0.5,0-1.1-1-1.7-1h-1.6C-226-215-225.7-214-225.5-214z"/>
	<path class="st1" d="M-235-214h7.5c-0.2,0-0.5-1-0.8-1h-6.7V-214z"/>
	<path class="st1" d="M-245.8-215h-1.5c-0.6,0-1.2,1-1.7,1h2.4C-246.3-214-246.1-215-245.8-215z"/>
	<path class="st1" d="M-243.7-215h-2.1c-0.3,0-0.5,1-0.8,1h2C-244.3-214-244-215-243.7-215z"/>
	<path class="st1" d="M-228.3-215c0.3,0,0.6,1,0.8,1h2c-0.2,0-0.5-1-0.8-1H-228.3z"/>
	<rect x="-236" y="-208" class="st1" width="1" height="3"/>
	<rect x="-236" y="-214" class="st1" width="1" height="3"/>
	<rect x="-236" y="-198" class="st1" width="1" height="3"/>
	<path class="st1" d="M-235-220c0,0-0.5-0.1-1-0.1c-0.2,0,0,0,0,0v5h1V-220z"/>
	<rect x="-236" y="-203" class="st1" width="1" height="3"/>
	<path class="st1" d="M-236-187.9C-236-187.9-236.1-187.8-236-187.9c0.5,0,1,0,1-0.1v-5.1h-1V-187.9z"/>
	<rect x="-236.6" y="-205" class="st1" width="1" height="2"/>
	<rect x="-236.6" y="-200" class="st1" width="1" height="2"/>
	<rect x="-236.6" y="-195" class="st1" width="1" height="2"/>
	<rect x="-236" y="-211" class="st1" width="1" height="3"/>
	<rect x="-236" y="-215.2" class="st1" width="0.8" height="1.5"/>
	<path class="st0" d="M-235.5-224.4L-235.5-224.4c-0.5,0-1,0.4-1,1v2.2h1.9v-2.2C-234.5-223.9-235-224.4-235.5-224.4z"/>
	<path class="st1" d="M-236-195v2h6.8c0.3,0,0.5-1,0.8-2H-236z"/>
	<path class="st1" d="M-236-198h8.5c0.1-1,0.2-1,0.3-2h-8.8V-198z"/>
	<path class="st1" d="M-236-203h9.1c0,0,0-0.6,0-0.8c0-0.4,0-1.2,0-1.2h-9V-203z"/>
	<path class="st1" d="M-236-214h7.5c-0.2,0-0.5-1-0.8-1h-6.7V-214z"/>
</g>
<ellipse class="st2" cx="-235.8" cy="-183.1" rx="13.7" ry="1"/>
<polygon class="st0" points="-213.4,-213 -214.9,-211.3 -214.4,-209 -216.5,-210 -218.4,-208.8 -218.2,-211.1 -220,-212.6 
	-217.7,-213 -216.8,-215.2 -215.7,-213.2 "/>
<polygon class="st0" points="-219.1,-220.2 -222,-220.1 -223.6,-217.8 -224.5,-220.5 -227.2,-221.2 -224.9,-222.9 -225.1,-225.8 
	-222.7,-224.1 -220.1,-225.1 -220.9,-222.4 "/>
<circle class="st4" cx="-365" cy="-58.9" r="12.5"/>
<circle class="st4" cx="-365" cy="-58.9" r="9.4"/>
<circle class="st4" cx="-365" cy="-58.9" r="8.1"/>
<path class="st5" d="M-357.9-45.5c-0.9-0.3-1-0.3-0.9-1.4c0.1-2.2,0.3-4.3,0.4-6.5c0.1-1.5,0-3-0.3-4.5c-0.5-2-0.5-4-0.4-6.1
	c0.1-1.6,0.2-3.1,0.7-4.6c0.1-0.5,0.4-0.9,0.6-1.3c0.1-0.2,0.5-0.3,0.7-0.3c0.2,0,0.4,0.3,0.4,0.5c0.1,0.4,0.1,0.8,0.1,1.2
	c-0.1,3.2-0.2,6.3-0.3,9.5c0,1.3-0.2,2.6-0.2,3.9c0.1,2.7,0.3,5.3,0.5,8c0,0.1,0,0.1,0,0.2c0.1,1,0,1.1-0.9,1.4
	C-357.5-45.5-357.7-45.5-357.9-45.5z"/>
<path class="st5" d="M-361.8-70.4c0.1,0.4,0.1,0.8,0.2,1.2c0.1,1.7,0.3,3.4,0.4,5.1c0,0.5-0.1,1.1-0.4,1.4c-0.9,1-1,2.1-0.9,3.3
	c0.2,4.1,0.3,8.2,0.5,12.2c0,0.7-0.1,1.3-0.7,1.7c-0.2,0-0.3,0-0.5,0c-0.5-0.4-0.7-0.9-0.6-1.4c0.1-2,0.2-4.1,0.3-6.1
	c0.1-2.5,0.2-5,0.3-7.4c0-0.4-0.2-0.9-0.4-1.3c-0.3-0.6-0.7-1.2-1.1-1.8c0-0.3,0-0.5,0-0.8c0-0.1,0.1-0.2,0.1-0.3
	c0.1-1.9,0.2-3.8,0.3-5.7c0.1,0,0.1,0,0.2,0c0,0.2,0.1,0.3,0.1,0.5c0,1.3,0.1,2.7,0.1,4c0,0.1,0.1,0.2,0.2,0.4
	c0.1-0.1,0.2-0.2,0.2-0.4c0-0.7,0-1.3,0-2c0-0.8,0-1.7,0.1-2.5c0.1,0,0.1,0,0.2,0c0.1,1.6,0.2,3.2,0.2,4.8c0.1,0,0.1,0,0.2,0
	c0-0.1,0.1-0.3,0.1-0.4c0-1.3,0.1-2.6,0.1-3.9c0-0.2,0.1-0.4,0.1-0.6c0,0,0.1,0,0.1,0c0,0.2,0.1,0.4,0.1,0.6c0,1.3,0.1,2.6,0.1,3.9
	c0,0.1,0.1,0.2,0.2,0.4c0.1-0.1,0.2-0.2,0.2-0.3c0-1,0-2,0.1-3C-362-69.4-362-69.9-361.8-70.4C-361.9-70.4-361.9-70.4-361.8-70.4z"
	/>
<circle class="st4" cx="-405" cy="-102.8" r="10"/>
<circle class="st4" cx="-405" cy="-102.8" r="7.5"/>
<circle class="st4" cx="-405" cy="-102.8" r="6.4"/>
<path class="st5" d="M-399.3-92.1c-0.8-0.3-0.8-0.3-0.7-1.1c0.1-1.7,0.2-3.5,0.3-5.2c0.1-1.2,0-2.4-0.3-3.6
	c-0.4-1.6-0.4-3.2-0.3-4.9c0-1.2,0.2-2.5,0.5-3.7c0.1-0.4,0.3-0.7,0.5-1c0.1-0.1,0.4-0.2,0.5-0.2c0.1,0,0.3,0.2,0.3,0.4
	c0.1,0.3,0.1,0.6,0.1,0.9c-0.1,2.5-0.1,5-0.2,7.6c0,1-0.2,2.1-0.1,3.1c0.1,2.1,0.3,4.3,0.4,6.4c0,0.1,0,0.1,0,0.2
	c0.1,0.8,0,0.9-0.7,1.1C-399.1-92.1-399.2-92.1-399.3-92.1z"/>
<path class="st5" d="M-402.5-112c0,0.3,0.1,0.6,0.1,0.9c0.1,1.3,0.2,2.7,0.3,4c0,0.4-0.1,0.9-0.3,1.1c-0.7,0.8-0.8,1.7-0.7,2.7
	c0.2,3.3,0.3,6.5,0.4,9.8c0,0.5-0.1,1-0.5,1.3c-0.1,0-0.3,0-0.4,0c-0.4-0.3-0.5-0.7-0.5-1.2c0.1-1.6,0.1-3.2,0.2-4.9
	c0.1-2,0.2-4,0.2-5.9c0-0.3-0.1-0.7-0.3-1c-0.3-0.5-0.6-1-0.9-1.4c0-0.2,0-0.4,0-0.6c0-0.1,0.1-0.1,0.1-0.2c0.1-1.5,0.2-3.1,0.3-4.6
	c0.1,0,0.1,0,0.2,0c0,0.1,0.1,0.3,0.1,0.4c0,1.1,0.1,2.1,0.1,3.2c0,0.1,0.1,0.2,0.2,0.3c0.1-0.1,0.2-0.2,0.2-0.3c0-0.5,0-1,0-1.6
	c0-0.7,0-1.3,0-2c0.1,0,0.1,0,0.2,0c0.1,1.3,0.1,2.6,0.2,3.9c0.1,0,0.1,0,0.2,0c0-0.1,0-0.2,0-0.3c0-1,0.1-2.1,0.1-3.1
	c0-0.2,0.1-0.3,0.1-0.5c0,0,0.1,0,0.1,0c0,0.2,0.1,0.3,0.1,0.5c0,1,0.1,2.1,0.1,3.1c0,0.1,0.1,0.2,0.1,0.3c0-0.1,0.1-0.2,0.1-0.3
	c0-0.8,0-1.6,0.1-2.4C-402.6-111.2-402.6-111.6-402.5-112C-402.5-112-402.5-112-402.5-112z"/>
<circle class="st6" cx="-397.9" cy="34" r="27.8"/>
<circle class="st6" cx="-397.9" cy="34" r="18"/>
<circle class="st6" cx="-397.9" cy="34" r="21"/>
<path class="st7" d="M-382,63.8c-2.1-0.7-2.1-0.7-2-3c0.3-4.8,0.6-9.7,0.8-14.5c0.2-3.4,0-6.7-0.7-10c-1.1-4.5-1-9-0.9-13.6
	c0.1-3.5,0.4-7,1.5-10.3c0.3-1,0.8-2,1.4-2.9c0.3-0.4,1-0.7,1.5-0.6c0.4,0.1,0.8,0.7,1,1.1c0.2,0.8,0.3,1.7,0.3,2.6
	c-0.2,7-0.4,14.1-0.7,21.1c-0.1,2.9-0.5,5.8-0.4,8.7c0.3,6,0.8,11.9,1.2,17.9c0,0.1,0,0.3,0.1,0.4c0.2,2.2,0.1,2.4-1.9,3.1
	C-381.2,63.8-381.6,63.8-382,63.8z"/>
<path class="st7" d="M-390.8,8.3c0.1,0.9,0.3,1.7,0.4,2.6c0.3,3.8,0.7,7.5,0.9,11.3c0,1.1-0.2,2.4-0.9,3.2c-1.9,2.2-2.2,4.7-2.1,7.5
	c0.4,9.1,0.7,18.2,1.1,27.3c0.1,1.5-0.2,2.8-1.5,3.7c-0.4,0-0.7,0-1.1,0c-1.1-0.8-1.5-1.9-1.4-3.2c0.2-4.5,0.4-9.1,0.6-13.6
	c0.2-5.5,0.5-11.1,0.6-16.6c0-1-0.4-2-0.8-2.9c-0.7-1.4-1.6-2.7-2.4-4c0-0.6,0-1.2,0-1.8c0.1-0.2,0.1-0.4,0.2-0.6
	c0.2-4.3,0.5-8.5,0.7-12.8c0.1,0,0.3,0,0.4,0c0.1,0.4,0.1,0.7,0.2,1.1c0.1,3,0.2,5.9,0.3,8.9c0,0.3,0.3,0.5,0.5,0.8
	c0.2-0.3,0.4-0.5,0.5-0.8c0-1.5,0-2.9,0-4.4c0-1.9,0.1-3.7,0.1-5.6c0.1,0,0.3,0,0.4,0c0.2,3.6,0.4,7.2,0.5,10.8c0.1,0,0.3,0,0.4,0
	c0-0.3,0.1-0.6,0.1-0.9c0.1-2.9,0.1-5.8,0.2-8.7c0-0.4,0.1-0.8,0.2-1.3c0.1,0,0.1,0,0.2,0c0.1,0.4,0.2,0.8,0.2,1.3
	c0.1,2.9,0.2,5.8,0.2,8.7c0,0.3,0.2,0.5,0.3,0.8c0.1-0.3,0.4-0.5,0.4-0.8c0.1-2.2,0.1-4.5,0.1-6.7c0-1.1,0.1-2.2,0.2-3.3
	C-390.9,8.3-390.8,8.3-390.8,8.3z"/>
<ellipse class="st2" cx="-376.5" cy="-93.2" rx="6.6" ry="0.4"/>
<g>
	<path class="st0" d="M-371.7-109.7c-1.3-0.9-3-1.5-4.7-1.5c-1.6,0-3.2,0.5-4.5,1.3c-0.8,2.1-2.1,7.1,0.2,14.2
		c1.3,0.7,2.7,1.2,4.3,1.2c1.7,0,3.2-0.5,4.5-1.3C-369.6-102.6-370.8-107.5-371.7-109.7z"/>
	<path class="st0" d="M-381.8-109.1c-1.8,1.5-2.9,3.8-2.9,6.3c0,2.7,1.3,5,3.2,6.6C-383.4-102.3-382.6-106.7-381.8-109.1z"/>
	<path class="st0" d="M-368-102.8c0-2.4-1-4.6-2.7-6.1c0.8,2.5,1.4,6.7-0.3,12.5C-369.2-97.9-368-100.2-368-102.8z"/>
	<path class="st1" d="M-380.9-109.8c-0.3,0.2-0.7,0.5-1,0.7c-0.8,2.5-1.5,6.9,0.3,12.9c0.3,0.2,0.6,0.4,0.9,0.6
		C-383-102.7-381.7-107.7-380.9-109.8z"/>
	<path class="st1" d="M-370.7-108.9c-0.3-0.3-0.6-0.6-1-0.8c0.8,2.2,2,7.1-0.2,13.9c0.3-0.2,0.6-0.4,0.9-0.7
		C-369.3-102.2-369.9-106.4-370.7-108.9z"/>
	<rect x="-376.7" y="-111.2" class="st1" width="0.7" height="16.7"/>
	
		<rect x="-376.7" y="-112.7" transform="matrix(4.479421e-11 1 -1 4.479421e-11 -479.0896 273.6661)" class="st1" width="0.7" height="20"/>
	
		<rect x="-376.7" y="-110.1" transform="matrix(4.479421e-11 1 -1 4.479421e-11 -476.4908 276.265)" class="st1" width="0.7" height="20"/>
	
		<rect x="-376.7" y="-115.3" transform="matrix(4.479421e-11 1 -1 4.479421e-11 -481.6884 271.0673)" class="st1" width="0.7" height="20"/>
	
		<rect x="-376.7" y="-117.9" transform="matrix(4.479421e-11 1 -1 4.479421e-11 -484.2873 268.4684)" class="st1" width="0.7" height="20"/>
	
		<rect x="-376.7" y="-107.5" transform="matrix(4.479421e-11 1 -1 4.479421e-11 -473.8919 278.8638)" class="st1" width="0.7" height="20"/>
	<polygon class="st0" points="-367.6,-109.1 -368.1,-108.6 -367.9,-107.9 -368.5,-108.2 -369.1,-107.9 -369.1,-108.5 -369.6,-109 
		-368.9,-109.1 -368.6,-109.8 -368.3,-109.2 	"/>
	<polygon class="st0" points="-369.3,-111.2 -370.2,-111.2 -370.6,-110.5 -370.9,-111.3 -371.7,-111.5 -371.1,-112 -371.1,-112.9 
		-370.4,-112.4 -369.6,-112.7 -369.9,-111.9 	"/>
	<path class="st0" d="M-376.4-112.9c-0.2,0-0.4,0.2-0.4,0.4v1.1h0.8v-1.1C-376-112.7-376.3-112.9-376.4-112.9z"/>
</g>
<ellipse class="st1" cx="-350.6" cy="-108.6" rx="1.1" ry="1.1"/>
<ellipse class="st1" cx="-344.2" cy="-108.6" rx="1.1" ry="1.1"/>
<g>
	<path class="st2" d="M-344-108.3h-0.4c-0.2,0-0.3-0.1-0.3-0.3v-4.6c0-0.2,0.1-0.3,0.3-0.3h0.4c0.2,0,0.3,0.1,0.3,0.3v4.6
		C-343.7-108.4-343.8-108.3-344-108.3z"/>
</g>
<g>
	<path class="st2" d="M-350.4-108.3h-0.4c-0.2,0-0.3-0.1-0.3-0.3v-4.6c0-0.2,0.1-0.3,0.3-0.3h0.4c0.2,0,0.3,0.1,0.3,0.3v4.6
		C-350.1-108.4-350.2-108.3-350.4-108.3z"/>
</g>
<ellipse class="st0" cx="-258.4" cy="-65.1" rx="1.5" ry="1.7"/>
<ellipse class="st0" cx="-249.1" cy="-65.1" rx="1.5" ry="1.7"/>
<path class="st0" d="M-243.1-45.1H-264c-2,0-3.5-1.9-3.5-4.6l-0.1-14.2c0-2.4,1.4-3.8,3.6-3.8h20.9c1.4,0,3.1,0.7,3.1,3.9v14
	C-240-46.8-241.2-45.1-243.1-45.1z"/>
<path class="st0" d="M-249.1-66.5c-0.7,0-1.2,0.6-1.2,1.4c0,0.8,0.6,1.4,1.2,1.4c0.7,0,1.2-0.6,1.2-1.4
	C-247.9-65.9-248.5-66.5-249.1-66.5z"/>
<path class="st0" d="M-258.4-66.5c-0.7,0-1.2,0.6-1.2,1.4c0,0.8,0.6,1.4,1.2,1.4s1.2-0.6,1.2-1.4C-257.2-65.9-257.8-66.5-258.4-66.5
	z"/>
<g>
	<rect x="-265.6" y="-61.7" class="st1" width="23.5" height="12.5"/>
</g>
<g>
	<rect x="-259.1" y="-59.9" class="st2" width="2" height="2"/>
</g>
<g>
	<rect x="-256.5" y="-59.9" class="st2" width="2" height="2"/>
</g>
<g>
	<rect x="-253.9" y="-59.9" class="st2" width="2" height="2"/>
</g>
<g>
	<rect x="-251.3" y="-59.9" class="st2" width="2" height="2"/>
</g>
<g>
	<rect x="-248.7" y="-59.9" class="st2" width="2" height="2"/>
</g>
<g>
	<rect x="-259.1" y="-57.2" class="st2" width="2" height="2"/>
</g>
<g>
	<rect x="-261.8" y="-57.2" class="st2" width="2" height="2"/>
</g>
<g>
	<rect x="-256.5" y="-57.2" class="st2" width="2" height="2"/>
</g>
<g>
	<rect x="-253.9" y="-57.2" class="st2" width="2" height="2"/>
</g>
<g>
	<rect x="-251.3" y="-57.2" class="st2" width="2" height="2"/>
</g>
<g>
	<rect x="-248.7" y="-57.2" class="st2" width="2" height="2"/>
</g>
<g>
	<rect x="-259.1" y="-54.4" class="st2" width="2" height="2"/>
</g>
<g>
	<rect x="-261.8" y="-54.4" class="st2" width="2" height="2"/>
</g>
<g>
	<rect x="-256.5" y="-54.4" class="st2" width="2" height="2"/>
</g>
<g>
	<rect x="-253.9" y="-54.4" class="st2" width="2" height="2"/>
</g>
<g>
	<rect x="-251.3" y="-54.4" class="st2" width="2" height="2"/>
</g>
<ellipse class="st1" cx="-257.9" cy="-64.8" rx="1.3" ry="1.4"/>
<ellipse class="st1" cx="-249.8" cy="-64.8" rx="1.3" ry="1.4"/>
<g>
	<path class="st2" d="M-249.4-64.4h-0.7c-0.2,0-0.3-0.1-0.3-0.3v-6c0-0.2,0.1-0.3,0.3-0.3h0.7c0.2,0,0.3,0.1,0.3,0.3v6
		C-249.1-64.5-249.2-64.4-249.4-64.4z"/>
</g>
<g>
	<path class="st2" d="M-257.5-64.4h-0.7c-0.2,0-0.3-0.1-0.3-0.3v-6c0-0.2,0.1-0.3,0.3-0.3h0.7c0.2,0,0.3,0.1,0.3,0.3v6
		C-257.2-64.5-257.4-64.4-257.5-64.4z"/>
</g>
<g>
	<ellipse class="st0" cx="-230.4" cy="19.7" rx="3.2" ry="3.6"/>
	<ellipse class="st0" cx="-211.2" cy="19.7" rx="3.2" ry="3.6"/>
	<path class="st0" d="M-198.7,61.3h-43.4c-4.2,0-7.2-4-7.2-9.5l-0.2-29.5c0-4.9,2.8-7.9,7.4-7.9h43.4c2.9,0,6.5,1.4,6.5,8.1v29.1
		C-192.2,57.6-194.7,61.3-198.7,61.3z"/>
	<path class="st0" d="M-211.2,16.8c-1.4,0-2.6,1.3-2.6,2.9c0,1.6,1.2,2.9,2.6,2.9c1.4,0,2.6-1.3,2.6-2.9
		C-208.6,18.1-209.8,16.8-211.2,16.8z"/>
	<path class="st0" d="M-230.4,16.8c-1.4,0-2.6,1.3-2.6,2.9c0,1.6,1.2,2.9,2.6,2.9c1.4,0,2.6-1.3,2.6-2.9
		C-227.9,18.1-229,16.8-230.4,16.8z"/>
	<g>
		<rect x="-245.2" y="26.8" class="st1" width="48.8" height="25.9"/>
	</g>
	<g>
		<rect x="-231.9" y="30.5" class="st2" width="4.1" height="4.1"/>
	</g>
	<g>
		<rect x="-226.5" y="30.5" class="st2" width="4.1" height="4.1"/>
	</g>
	<g>
		<rect x="-221.1" y="30.5" class="st2" width="4.1" height="4.1"/>
	</g>
	<g>
		<rect x="-215.7" y="30.5" class="st2" width="4.1" height="4.1"/>
	</g>
	<g>
		<rect x="-210.2" y="30.5" class="st2" width="4.1" height="4.1"/>
	</g>
	<g>
		<rect x="-231.9" y="36.1" class="st2" width="4.1" height="4.1"/>
	</g>
	<g>
		<rect x="-237.4" y="36.1" class="st2" width="4.1" height="4.1"/>
	</g>
	<g>
		<rect x="-226.5" y="36.1" class="st2" width="4.1" height="4.1"/>
	</g>
	<g>
		<rect x="-221.1" y="36.1" class="st2" width="4.1" height="4.1"/>
	</g>
	<g>
		<rect x="-215.7" y="36.1" class="st2" width="4.1" height="4.1"/>
	</g>
	<g>
		<rect x="-210.2" y="36.1" class="st2" width="4.1" height="4.1"/>
	</g>
	<g>
		<rect x="-231.9" y="41.9" class="st2" width="4.1" height="4.1"/>
	</g>
	<g>
		<rect x="-237.4" y="41.9" class="st2" width="4.1" height="4.1"/>
	</g>
	<g>
		<rect x="-226.5" y="41.9" class="st2" width="4.1" height="4.1"/>
	</g>
	<g>
		<rect x="-221.1" y="41.9" class="st2" width="4.1" height="4.1"/>
	</g>
	<g>
		<rect x="-215.7" y="41.9" class="st2" width="4.1" height="4.1"/>
	</g>
	<ellipse class="st1" cx="-229.3" cy="20.4" rx="2.8" ry="2.9"/>
	<ellipse class="st1" cx="-212.4" cy="20.4" rx="2.8" ry="2.9"/>
	<g>
		<path class="st2" d="M-211.6,21.2h-1.7c-0.3,0-0.5-0.2-0.5-0.5V8c0-0.3,0.2-0.5,0.5-0.5h1.7c0.3,0,0.5,0.2,0.5,0.5v12.7
			C-211.1,21-211.3,21.2-211.6,21.2z"/>
	</g>
	<g>
		<path class="st2" d="M-228.5,21.2h-1.6c-0.3,0-0.6-0.3-0.6-0.6V8c0-0.3,0.3-0.6,0.6-0.6h1.6c0.3,0,0.6,0.3,0.6,0.6v12.6
			C-227.9,21-228.2,21.2-228.5,21.2z"/>
	</g>
</g>
<ellipse class="st2" cx="-310.3" cy="-46.2" rx="8" ry="0.5"/>
<g>
	<path class="st0" d="M-304.4-66.4c-1.6-1.1-3.6-1.8-5.8-1.8c-2,0-3.9,0.6-5.5,1.6c-1,2.6-2.6,8.8,0.2,17.4c1.5,0.9,3.3,1.5,5.2,1.5
		c2,0,3.9-0.6,5.5-1.6C-302-57.7-303.4-63.7-304.4-66.4z"/>
	<path class="st0" d="M-316.9-65.7c-2.2,1.9-3.6,4.7-3.6,7.8c0,3.3,1.5,6.2,3.9,8C-318.8-57.2-317.9-62.7-316.9-65.7z"/>
	<path class="st0" d="M-300-57.9c0-3-1.3-5.6-3.3-7.5c0.9,3,1.7,8.3-0.4,15.3C-301.4-52-300-54.8-300-57.9z"/>
	<path class="st1" d="M-315.7-66.5c-0.4,0.3-0.8,0.6-1.2,0.9c-1,3-1.9,8.4,0.3,15.8c0.3,0.3,0.7,0.5,1.1,0.7
		C-318.3-57.8-316.7-63.9-315.7-66.5z"/>
	<path class="st1" d="M-303.3-65.4c-0.4-0.4-0.8-0.7-1.2-1c1,2.7,2.5,8.7-0.3,17.1c0.4-0.2,0.8-0.5,1.1-0.8
		C-301.5-57.1-302.3-62.4-303.3-65.4z"/>
	<rect x="-310.7" y="-68.2" class="st1" width="0.9" height="20.5"/>
	
		<rect x="-310.7" y="-70" transform="matrix(4.672866e-11 1 -1 4.672866e-11 -368.0362 252.4213)" class="st1" width="0.9" height="24.5"/>
	
		<rect x="-310.7" y="-66.9" transform="matrix(4.672866e-11 1 -1 4.672866e-11 -364.8529 255.6046)" class="st1" width="0.9" height="24.5"/>
	
		<rect x="-310.7" y="-73.2" transform="matrix(4.672866e-11 1 -1 4.672866e-11 -371.2195 249.238)" class="st1" width="0.9" height="24.5"/>
	
		<rect x="-310.7" y="-76.4" transform="matrix(4.672866e-11 1 -1 4.672866e-11 -374.4029 246.0546)" class="st1" width="0.9" height="24.5"/>
	
		<rect x="-310.7" y="-63.7" transform="matrix(4.672866e-11 1 -1 4.672866e-11 -361.6696 258.7879)" class="st1" width="0.9" height="24.5"/>
	<polygon class="st0" points="-299.5,-65.6 -300.1,-65 -299.9,-64.2 -300.6,-64.5 -301.4,-64.1 -301.3,-64.9 -301.9,-65.5 
		-301.1,-65.7 -300.8,-66.4 -300.3,-65.7 	"/>
	<polygon class="st0" points="-301.6,-68.2 -302.6,-68.2 -303.2,-67.4 -303.5,-68.3 -304.5,-68.6 -303.7,-69.2 -303.8,-70.3 
		-302.9,-69.7 -301.9,-70 -302.2,-69.1 	"/>
	<path class="st0" d="M-310.4-70.3c-0.2,0-0.5,0.2-0.5,0.5v1.3h0.9v-1.3C-309.9-70-310.2-70.3-310.4-70.3z"/>
</g>
<ellipse class="st2" cx="-318.9" cy="62.8" rx="19.1" ry="1.3"/>
<g>
	<path class="st0" d="M-304.8,14.8c-3.9-2.7-8.7-4.3-13.8-4.3c-4.8,0-9.3,1.4-13.1,3.8c-2.5,6.2-6.2,20.8,0.6,41.5
		c3.7,2.2,7.9,3.5,12.5,3.5c4.8,0,9.3-1.4,13.1-3.9C-299,35.4-302.4,21.1-304.8,14.8z"/>
	<path class="st0" d="M-334.4,16.4c-5.2,4.5-8.5,11.1-8.5,18.5c0,7.8,3.6,14.7,9.3,19.1C-339,36.4-336.8,23.5-334.4,16.4z"/>
	<path class="st0" d="M-294.2,34.9c0-7-3-13.4-7.8-17.8c2.2,7.2,4.1,19.7-0.8,36.4C-297.6,49-294.2,42.3-294.2,34.9z"/>
	<path class="st1" d="M-331.6,14.3c-1,0.6-1.9,1.3-2.8,2.1c-2.3,7.2-4.5,20.1,0.8,37.6c0.8,0.6,1.7,1.2,2.6,1.8
		C-337.9,35.1-334.1,20.5-331.6,14.3z"/>
	<path class="st1" d="M-302,17.1c-0.9-0.8-1.8-1.6-2.8-2.3c2.4,6.4,5.9,20.6-0.6,40.6c0.9-0.6,1.8-1.2,2.6-1.9
		C-297.9,36.7-299.8,24.3-302,17.1z"/>
	<rect x="-319.7" y="10.5" class="st1" width="2.1" height="48.7"/>
	
		<rect x="-319.7" y="6" transform="matrix(4.610072e-11 1 -1 4.610072e-11 -283.4941 353.6875)" class="st1" width="2.1" height="58.2"/>
	
		<rect x="-319.7" y="13.6" transform="matrix(4.610072e-11 1 -1 4.610072e-11 -275.9184 361.2632)" class="st1" width="2.1" height="58.2"/>
	
		<rect x="-319.7" y="-1.6" transform="matrix(4.610072e-11 1 -1 4.610072e-11 -291.0698 346.1118)" class="st1" width="2.1" height="58.2"/>
	
		<rect x="-319.7" y="-9.2" transform="matrix(4.610072e-11 1 -1 4.610072e-11 -298.6455 338.536)" class="st1" width="2.1" height="58.2"/>
	
		<rect x="-319.7" y="21.1" transform="matrix(4.610072e-11 1 -1 4.610072e-11 -268.3426 368.8389)" class="st1" width="2.1" height="58.2"/>
	<polygon class="st0" points="-293.1,16.5 -294.4,17.9 -293.9,19.9 -295.8,19.1 -297.5,20.1 -297.3,18.1 -298.8,16.8 -296.8,16.4 
		-296.1,14.6 -295.1,16.3 	"/>
	<polygon class="st0" points="-298.1,10.3 -300.5,10.3 -301.9,12.3 -302.7,10 -305,9.4 -303.1,7.9 -303.2,5.4 -301.2,6.8 -298.9,6 
		-299.6,8.3 	"/>
	<path class="st0" d="M-318.5,5.4c-0.4,0-0.5,0.5-0.5,1.2V10h1V6.7C-318,6-318.1,5.4-318.5,5.4z"/>
</g>
<g>
	<path class="st8" d="M-318.1-93.2L-318.1-93.2c-1.3,0-2.5-0.6-3.3-1.5l-6.9-8.1c-1.3-1.5-1.6-3.6-0.9-5.5c0.7-1.8,2.3-3.1,4.2-3.3
		c0.2,0,0.5,0,0.8,0c2.5,0,4.8,1.5,6.2,4c1.5-2.6,4-4.2,6.6-4c2,0.1,3.7,1.3,4.5,3.2c0.8,1.9,0.5,4.1-0.9,5.7l-7,8.1
		C-315.6-93.7-316.8-93.2-318.1-93.2z M-324.2-110.7c-0.2,0-0.4,0-0.6,0c-1.6,0.2-2.8,1.2-3.4,2.7c-0.6,1.5-0.3,3.3,0.7,4.5l6.9,8.1
		c0.6,0.7,1.6,1.2,2.5,1.2l0,0c1,0,1.9-0.4,2.5-1.1l7-8.1c1.1-1.3,1.4-3.1,0.7-4.7c-0.6-1.5-2-2.5-3.6-2.6c-0.1,0-0.2,0-0.3,0
		c-2.3,0-4.5,1.6-5.6,4.2l0,0l-0.3,0.5l-0.5,0l-0.3-0.5l0-0.1C-319.7-109.1-321.8-110.7-324.2-110.7z"/>
</g>
<g>
	<path class="st8" d="M-205-44.8L-205-44.8c-1.7,0-3.3-0.7-4.3-2l-9.1-10.7c-1.7-2-2.2-4.8-1.2-7.3c0.9-2.4,3-4.1,5.6-4.4
		c0.3,0,0.7-0.1,1-0.1c3.3,0,6.3,2,8.2,5.3c1.9-3.5,5.2-5.5,8.7-5.3c2.7,0.2,4.9,1.8,5.9,4.3c1.1,2.6,0.6,5.4-1.2,7.5l-9.3,10.7
		C-201.8-45.6-203.3-44.8-205-44.8z M-213-68c-0.3,0-0.6,0-0.8,0.1c-2.1,0.3-3.8,1.6-4.5,3.6c-0.8,2-0.4,4.3,1,6l9.1,10.7
		c0.8,1,2,1.5,3.3,1.5l0,0c1.3,0,2.5-0.6,3.3-1.5l9.3-10.7c1.5-1.7,1.8-4.1,1-6.2c-0.9-2-2.7-3.3-4.8-3.4c-0.1,0-0.3,0-0.4,0
		c-3.1,0-5.9,2.1-7.4,5.5l0,0.1l-0.4,0.7l-0.7,0l-0.4-0.6l0-0.1C-207.1-65.9-210-68-213-68z"/>
</g>
<g>
	<path class="st8" d="M-287.2-92.9c-2.4,0-4.8-0.4-7-1.2c-1.1-0.4-2.1-1-3.1-1.6l-0.1-0.1c-1.1-0.6-1.2-1.4-1.1-1.9
		c0.1-1.1,1.1-1.4,1.5-1.5c0.8-0.2,1.7-0.4,2.5-0.6c0.2-0.1,0.5-0.1,0.7-0.2l-0.1-1.3c-0.1-1.1-0.2-2.2-0.2-3.3
		c0-0.7-0.1-1.4-0.1-2.2c0-0.8-0.1-1.6-0.2-2.4c-0.1-0.8,0.1-1.3,0.9-1.7c0.6-0.2,1.5-0.6,2.3-0.7c3.6-0.6,6.8-0.5,9.8,0.3
		c0.2,0,0.3,0.1,0.5,0.1c1.4,0.5,1.6,0.8,1.5,2.4c-0.1,2.2-0.3,4.3-0.4,6.5l-0.1,1.9l0,0l0,0.1l0.6,0.1c0.7,0.1,1.4,0.3,2.1,0.5
		c0.5,0.1,1,0.4,1.4,0.7c0.3,0.2,0.5,0.6,0.6,1c0,0.4-0.1,0.7-0.3,1c-0.5,0.6-1,1.1-1.6,1.4c-1.6,1-3.4,1.6-5.8,2
		C-284.5-93-285.9-92.9-287.2-92.9z M-293.9-99.2c-0.2,0-0.3,0.1-0.5,0.1c-0.8,0.2-1.6,0.4-2.4,0.6c-0.7,0.2-0.9,0.4-1,0.9
		c-0.1,0.5,0.2,0.8,0.8,1.2l0.1,0.1c1,0.6,2,1.2,3,1.5c3.3,1.1,6.9,1.4,10.7,0.8c2.3-0.4,4-1,5.5-1.9c0.5-0.3,1-0.7,1.4-1.3
		c0.1-0.1,0.2-0.3,0.2-0.4c0-0.2-0.1-0.3-0.3-0.4c-0.4-0.3-0.8-0.5-1.2-0.6c-0.7-0.2-1.3-0.3-2-0.5c-0.1,0-0.3-0.1-0.4-0.1l0,0.3
		c0,0.6-0.1,1.1-0.1,1.6c0,0.4-0.5,0.7-0.7,0.7c-0.2,0.1-0.5,0.1-0.7,0.2c-0.8,0.2-1.5,0.5-2.3,0.6c-2.9,0.4-5.3,0.3-7.6-0.3
		c-2-0.5-2.2-0.8-2.2-3C-293.9-99.1-293.9-99.1-293.9-99.2z M-293.1-99c0,1.8,0.1,1.9,1.7,2.2c2.2,0.5,4.6,0.6,7.4,0.3
		c0.7-0.1,1.5-0.3,2.2-0.6c0.2-0.1,0.5-0.1,0.7-0.2c0.1,0,0.2-0.1,0.2-0.1c0.1-0.5,0.1-1,0.1-1.5l0,0c-2,0.8-4,0.9-5.5,1l-0.6,0
		c-1.6,0-3.8-0.1-5.9-0.9C-293-98.9-293.1-98.9-293.1-99z M-293.1-99.9C-293.1-99.8-293.1-99.8-293.1-99.9c0.2,0.1,0.3,0.2,0.4,0.3
		c2,0.7,4.1,0.8,5.6,0.8l0.6,0c1.5,0,3.5-0.2,5.6-1c0,0,0-0.1,0-0.1l0.1-2.2c0.1-2.2,0.3-4.3,0.4-6.5c0.1-1.3,0.1-1.3-0.9-1.6
		c-0.1,0-0.3-0.1-0.4-0.1c-2.9-0.7-6-0.8-9.5-0.3c-0.8,0.1-1.6,0.4-2.2,0.6c-0.4,0.2-0.5,0.2-0.4,0.9c0.1,0.8,0.1,1.6,0.2,2.4
		c0,0.7,0.1,1.4,0.1,2.2c0.1,1.1,0.2,2.2,0.2,3.2l0.1,1.2l0.1,0L-293.1-99.9z"/>
</g>
<g>
	<path class="st8" d="M-167.2-45c-3.2,0-6.2-0.5-9.1-1.5c-1.4-0.5-2.8-1.3-4.1-2.1l-0.1-0.1c-1.4-0.8-1.6-1.8-1.5-2.5
		c0.2-1.4,1.5-1.8,2-2c1.1-0.3,2.1-0.6,3.2-0.8c0.3-0.1,0.6-0.1,0.9-0.2l-0.1-1.6c-0.1-1.4-0.2-2.8-0.3-4.2
		c-0.1-0.9-0.1-1.9-0.2-2.8c-0.1-1-0.1-2-0.2-3c-0.1-1.1,0.1-1.7,1.2-2.2c0.8-0.3,1.9-0.7,3-0.9c4.6-0.7,8.8-0.6,12.6,0.4
		c0.2,0.1,0.4,0.1,0.6,0.2c1.8,0.6,2,1,1.9,3.1c-0.2,2.8-0.4,5.6-0.5,8.4l-0.2,2.5l0,0l0,0.2l0.7,0.2c0.9,0.2,1.8,0.4,2.7,0.6
		c0.6,0.2,1.3,0.5,1.9,0.9c0.4,0.3,0.7,0.8,0.8,1.2c0.1,0.5-0.1,0.9-0.4,1.3c-0.6,0.8-1.4,1.4-2.1,1.8c-2,1.2-4.4,2-7.5,2.5
		C-163.8-45.1-165.5-45-167.2-45z M-175.9-53.1c-0.2,0-0.4,0.1-0.6,0.1c-1,0.2-2.1,0.5-3.2,0.8c-0.9,0.3-1.2,0.6-1.3,1.1
		c-0.1,0.6,0.3,1.1,1,1.5l0.1,0.1c1.3,0.7,2.6,1.5,3.9,2c4.3,1.5,8.9,1.8,13.8,1c3-0.5,5.2-1.2,7.1-2.4c0.6-0.4,1.2-0.9,1.8-1.6
		c0.1-0.1,0.2-0.3,0.2-0.6c0-0.2-0.2-0.4-0.4-0.5c-0.5-0.4-1-0.6-1.6-0.8c-0.9-0.2-1.7-0.4-2.6-0.6c-0.2,0-0.4-0.1-0.6-0.1l0,0.4
		c0,0.7-0.1,1.4-0.2,2.1c-0.1,0.5-0.6,0.9-0.9,1c-0.3,0.1-0.6,0.2-0.9,0.3c-1,0.3-2,0.6-3,0.8c-3.7,0.5-6.9,0.3-9.9-0.4
		c-2.5-0.6-2.8-1-2.9-3.9C-175.9-52.9-175.9-53-175.9-53.1z M-174.9-52.8c0.1,2.4,0.1,2.4,2.1,2.9c2.9,0.7,5.9,0.8,9.5,0.4
		c0.9-0.1,1.9-0.4,2.9-0.7c0.3-0.1,0.6-0.2,0.9-0.3c0.1,0,0.2-0.1,0.3-0.2c0.1-0.6,0.1-1.3,0.1-2l0,0c-2.6,1-5.2,1.2-7.2,1.2l-0.8,0
		c-2.1,0-4.9-0.1-7.6-1.2C-174.8-52.7-174.9-52.7-174.9-52.8z M-174.9-53.9C-174.9-53.9-174.8-53.9-174.9-53.9
		c0.2,0.2,0.4,0.3,0.6,0.3c2.6,1,5.3,1.1,7.3,1.1l0.8,0c2,0,4.6-0.2,7.2-1.3c0-0.1,0-0.1,0-0.2l0.2-2.8c0.2-2.8,0.3-5.6,0.5-8.4
		c0.1-1.6,0.1-1.6-1.2-2.1c-0.2-0.1-0.4-0.1-0.5-0.2c-3.7-0.9-7.8-1.1-12.3-0.3c-1,0.2-2,0.5-2.8,0.8c-0.5,0.2-0.6,0.3-0.5,1.1
		c0.1,1,0.1,2,0.2,3.1c0.1,0.9,0.1,1.9,0.2,2.8c0.1,1.4,0.2,2.8,0.3,4.2l0.1,1.5l0.1,0L-174.9-53.9z"/>
</g>
<path class="st8" d="M-251.2-105.3L-251.2-105.3l-0.1-0.2l-0.3-0.9l0,0.1c-1.6-3.1-4.8-5.2-8.4-5.2c-5,0-9,3.9-9.4,8.8l-0.1-0.1l0,1
	l0,0.1l0,0c0.3,5,4.4,8.9,9.4,8.9c5.2,0,9.4-4.2,9.4-9.4C-250.6-103.2-250.8-104.3-251.2-105.3z M-268.6-102.1
	c0-4.8,3.9-8.6,8.6-8.6c3.5,0,6.7,2.2,8,5.4l-3.3,7.7l-3-8.7l-3.2,7.7l-2.8-6.1l-2.5,4.8l-1.7-1.9
	C-268.6-101.9-268.6-102-268.6-102.1z M-260-93.4c-4.3,0-7.8-3.1-8.5-7.2l1.8,2l2.3-4.4l2.9,6.2l3.1-7.5l3,8.7l3.7-8.7
	c0.2,0.7,0.3,1.4,0.3,2.2C-251.4-97.3-255.2-93.4-260-93.4z"/>
<path class="st8" d="M-113.8-61.6L-113.8-61.6l-0.1-0.2l-0.4-1.1l0,0.1c-2.1-4.2-6.4-6.9-11.1-6.9c-6.6,0-11.9,5.1-12.3,11.6
	l-0.1-0.1l0.1,1.4l0,0.2l0,0c0.4,6.6,5.7,11.7,12.4,11.7c6.8,0,12.4-5.6,12.4-12.4C-113.1-58.8-113.3-60.2-113.8-61.6z M-136.9-57.3
	c0-6.3,5.1-11.4,11.4-11.4c4.6,0,8.8,2.8,10.6,7.1l-4.3,10.1l-4-11.5l-4.3,10.2l-3.8-8l-3.4,6.3l-2.3-2.6
	C-136.8-57.1-136.9-57.2-136.9-57.3z M-125.5-45.9c-5.6,0-10.3-4-11.2-9.4l2.3,2.6l3.1-5.8l3.9,8.2l4.1-9.8l4,11.5l4.9-11.5
	c0.2,0.9,0.4,1.9,0.4,2.9C-114.1-51-119.2-45.9-125.5-45.9z"/>
<path class="st1" d="M-219.6-103.9c0,0.6,0,1.1,0,1.7c0,0.1-0.1,0.2-0.1,0.3c-0.6,4.8-3.1,8-7.5,9.6c-0.8,0.3-1.7,0.4-2.5,0.6
	c-0.6,0-1.1,0-1.7,0c-0.1,0-0.2-0.1-0.3-0.1c-4.6-0.6-7.7-3.2-9.3-7.8c-0.3-0.8-0.4-1.7-0.6-2.6c0-0.6,0-1.1,0-1.7
	c0-0.1,0.1-0.2,0.1-0.3c0.6-4.8,3.1-8,7.5-9.6c0.8-0.3,1.7-0.4,2.5-0.6c0.6,0,1.1,0,1.7,0c0.1,0,0.2,0.1,0.3,0.1
	c4.6,0.6,7.7,3.2,9.3,7.8C-219.9-105.7-219.8-104.8-219.6-103.9z"/>
<path class="st9" d="M-227.9-109.2c-0.6,0-1.2,0-1.8,0c-1.7,0-2.6,1-2.6,2.7c0,0.5,0,0.9,0,1.4c-0.4,0-0.8,0-1.2,0
	c0,0.8,0,1.5,0,2.3c0.4,0,0.8,0,1.2,0c0,2.2,0,4.3,0,6.4c0.9,0,1.7,0,2.6,0c0-2.1,0-4.2,0-6.4c0.5,0,1,0,1.4,0
	c0.1,0,0.3-0.1,0.3-0.2c0.1-0.7,0.1-1.4,0.2-2.1c-0.7,0-1.3,0-2,0c0-0.5,0-0.9,0-1.3c0-0.4,0.2-0.6,0.6-0.6c0.4,0,0.8,0,1.3,0
	C-227.9-107.8-227.9-108.5-227.9-109.2z"/>
<path class="st1" d="M-72.9-59.1c0,0.8,0,1.5,0,2.3c0,0.1-0.1,0.2-0.1,0.4c-0.8,6.3-4.1,10.6-9.9,12.7c-1.1,0.4-2.2,0.5-3.4,0.8
	c-0.7,0-1.5,0-2.2,0c-0.1,0-0.2-0.1-0.4-0.1c-6.1-0.8-10.2-4.3-12.3-10.3c-0.4-1.1-0.5-2.3-0.7-3.5c0-0.8,0-1.5,0-2.3
	c0-0.1,0.1-0.2,0.1-0.4c0.8-6.3,4.1-10.6,9.9-12.7c1.1-0.4,2.2-0.5,3.4-0.8c0.7,0,1.5,0,2.2,0c0.1,0,0.2,0.1,0.4,0.1
	c6.1,0.8,10.2,4.3,12.3,10.3C-73.2-61.5-73.1-60.3-72.9-59.1z"/>
<path class="st9" d="M-83.9-66.2c-0.9,0-1.6,0-2.4,0c-2.2,0-3.5,1.3-3.5,3.6c0,0.6,0,1.2,0,1.9c-0.6,0-1.1,0-1.6,0c0,1,0,2,0,3
	c0.5,0,1,0,1.6,0c0,2.9,0,5.6,0,8.4c1.2,0,2.2,0,3.4,0c0-2.8,0-5.6,0-8.4c0.7,0,1.3,0,1.9,0c0.2,0,0.4-0.1,0.4-0.2
	c0.1-0.9,0.2-1.8,0.3-2.8c-0.9,0-1.7,0-2.6,0c0-0.6,0-1.1,0-1.7c0-0.5,0.3-0.8,0.8-0.8c0.6,0,1.1,0,1.7,0
	C-83.9-64.2-83.9-65.2-83.9-66.2z"/>
<path class="st1" d="M-188.3-102.8c0,6.5-5.2,11.6-11.7,11.6c-6.5,0-11.6-5.2-11.6-11.8c0-6.3,5.3-11.7,11.9-11.6
	C-193.4-114.4-188.3-109.2-188.3-102.8z"/>
<path class="st10" d="M-200.4-101.8c-0.2,1.2-1,1.9-2.1,2.1c-1.6,0.3-2.9-0.4-3.5-1.7c-0.6-1.3-0.3-2.8,0.7-3.8c1.1-1,2.6-1.1,4.2,0
	c0.5-0.5,0.9-1,1.4-1.6c-1.4-1.5-4.2-1.9-6.1-0.8c-2.4,1.4-3.4,3.9-2.6,6.4c0.8,2.6,3.2,4.1,6,3.8c3.3-0.4,4.6-3.2,4.4-5.7
	c0-0.3-0.1-0.6-0.6-0.6c-1.4,0-2.8,0-4.2,0c-0.2,0-0.5,0.2-0.5,0.4c-0.1,0.5,0,1.1,0,1.7C-202.3-101.8-201.4-101.8-200.4-101.8z"/>
<path class="st10" d="M-194.7-102.3c0,0.3,0,0.5,0,0.8c0,1.5,0,1.5,1.5,1.4c0,0,0.1,0,0.2-0.1c0-0.6,0-1.3,0-2c0.8,0,1.4,0,2.1,0
	c0-0.6,0-1.1,0-1.7c-0.7,0-1.4,0-2.2,0c0-0.8,0-1.4,0-2.1c-0.6,0-1.1,0-1.7,0c0,0.7,0,1.4,0,2.1c-0.3,0-0.5,0-0.7,0
	c-1.5,0-1.5,0-1.4,1.5c0,0,0,0.1,0.1,0.2C-196.1-102.3-195.4-102.3-194.7-102.3z"/>
<path class="st1" d="M-33.4-57.6c0,8.2-6.6,14.7-14.9,14.7C-56.5-43-63-49.5-63-57.9c0-8,6.7-14.8,15.1-14.7
	C-39.8-72.4-33.4-65.8-33.4-57.6z"/>
<path class="st10" d="M-48.7-56.4c-0.2,1.5-1.2,2.4-2.6,2.7c-2,0.3-3.6-0.5-4.5-2.2c-0.8-1.7-0.4-3.6,0.9-4.8
	c1.4-1.3,3.2-1.3,5.3-0.1c0.6-0.6,1.2-1.3,1.8-2c-1.8-1.9-5.3-2.4-7.7-1c-3,1.7-4.3,5-3.4,8.1c1,3.2,4.1,5.2,7.6,4.8
	c4.1-0.5,5.8-4.1,5.5-7.3c0-0.4-0.1-0.8-0.7-0.8c-1.8,0-3.5,0-5.3,0c-0.2,0-0.6,0.3-0.6,0.5c-0.1,0.7,0,1.4,0,2.2
	C-51.1-56.4-50-56.4-48.7-56.4z"/>
<path class="st10" d="M-41.5-57c0,0.4,0,0.7,0,1c0,1.9,0,1.9,1.9,1.7c0.1,0,0.1-0.1,0.3-0.2c0-0.8,0-1.6,0-2.6c1,0,1.8,0,2.7,0
	c0-0.7,0-1.4,0-2.2c-0.9,0-1.8,0-2.7,0c0-1,0-1.8,0-2.6c-0.7,0-1.4,0-2.1,0c0,0.9,0,1.7,0,2.6c-0.4,0-0.6,0-0.9,0
	c-1.9,0-1.9,0-1.7,1.9c0,0.1,0.1,0.1,0.1,0.2C-43.2-57-42.4-57-41.5-57z"/>
<path class="st1" d="M-169-110.8c2.7,0,5.3,0,8,0c1.7,0,2.8,1.1,2.8,2.7c0,3.5,0,6.9,0,10.4c0,1.7-1.1,2.7-2.8,2.7
	c-5.4,0-10.8,0-16.1,0c-1.6,0-2.7-1.1-2.7-2.7c0-3.5,0-7,0-10.6c0-1.6,1.1-2.6,2.7-2.6C-174.4-110.8-171.7-110.8-169-110.8z
	 M-160.2-107.2c-3,2.1-5.9,4.2-8.7,6.2c-3-2.2-5.9-4.5-8.9-6.7c0,0.2,0,0.3,0,0.4c0,3.2,0,6.3,0,9.5c0,0.7,0.2,0.9,0.9,0.9
	c5.2,0,10.5,0,15.7,0c1,0,1.1-0.1,1.1-1.1c0-2.8,0-5.7,0-8.5C-160.1-106.7-160.2-106.9-160.2-107.2z M-168.9-103.4
	c2.5-1.8,5-3.5,7.5-5.4c-4.9,0-9.7,0-14.6,0C-173.5-106.9-171.2-105.2-168.9-103.4z"/>
<path class="st1" d="M-8-67.7c3.6,0,7.2,0,10.8,0c2.3,0,3.7,1.4,3.7,3.7c0,4.7,0,9.3,0,14c0,2.2-1.5,3.7-3.7,3.7
	c-7.2,0-14.5,0-21.7,0c-2.1,0-3.6-1.4-3.6-3.6c0-4.7,0-9.5,0-14.2c0-2.1,1.5-3.5,3.6-3.5C-15.3-67.8-11.6-67.7-8-67.7z M3.9-62.9
	c-4,2.8-7.9,5.6-11.8,8.4c-4-3-7.9-6-12-9.1c0,0.3-0.1,0.4-0.1,0.6c0,4.3,0,8.6,0,12.8c0,1,0.3,1.2,1.2,1.2c7,0,14.1,0,21.1,0
	c1.3,0,1.5-0.2,1.5-1.5c0-3.8,0-7.7,0-11.5C3.9-62.3,3.9-62.5,3.9-62.9z M-7.8-57.8c3.3-2.4,6.7-4.7,10.2-7.2c-6.6,0-13.1,0-19.7,0
	C-14.1-62.6-11-60.2-7.8-57.8z"/>
<path class="st1" d="M-134.7-91.5c-1.7,0-3.1-0.4-4.3-1.1c-4.3-2.6-7.5-6.2-9.4-10.9c-0.9-2.3-0.8-4.5,0.5-6.7
	c0.6-1.1,1.6-1.8,2.6-2.5c0.5-0.4,1.1-0.3,1.6,0c0.1,0,0.1,0.1,0.2,0.1c1.1,1.2,2,2.5,2.4,4c0.2,0.7,0,1.4-0.6,1.9
	c-0.4,0.4-0.9,0.8-1.4,1.1c-0.7,0.5-0.9,1.1-0.7,2c0.3,1,0.8,1.8,1.4,2.6c1,1.3,2,2.5,3.4,3.3c1.2,0.8,1.9,0.7,2.9-0.4
	c0.3-0.3,0.7-0.7,1.1-0.9c0.7-0.5,1.5-0.6,2.2-0.2c1.3,0.7,2.4,1.7,3.4,2.8c0.6,0.8,0.5,1.5-0.2,2.2c-1,1-2.1,1.9-3.5,2.3
	C-133.7-91.7-134.3-91.6-134.7-91.5z"/>
<path class="st1" d="M35.3-46.3c-1.7,0-3.1-0.4-4.3-1.1c-4.3-2.6-7.5-6.2-9.4-10.9c-0.9-2.3-0.8-4.5,0.5-6.7
	c0.6-1.1,1.6-1.8,2.6-2.5c0.5-0.4,1.1-0.3,1.6,0c0.1,0,0.1,0.1,0.2,0.1c1.1,1.2,2,2.5,2.4,4c0.2,0.7,0,1.4-0.6,1.9
	c-0.4,0.4-0.9,0.8-1.4,1.1c-0.7,0.5-0.9,1.1-0.7,2c0.3,1,0.8,1.8,1.4,2.6c1,1.3,2,2.5,3.4,3.3c1.2,0.8,1.9,0.7,2.9-0.4
	c0.3-0.3,0.7-0.7,1.1-0.9c0.7-0.5,1.5-0.6,2.2-0.2c1.3,0.7,2.4,1.7,3.4,2.8c0.6,0.8,0.5,1.5-0.2,2.2c-1,1-2.1,1.9-3.5,2.3
	C36.2-46.4,35.6-46.3,35.3-46.3z"/>
<path class="st11" d="M-106.9-91.9c-2.1-4.1-4.1-7.8-5.9-11.6c-1.4-2.9-0.5-6.1,1.8-7.9c2.4-1.9,5.7-1.9,8.1-0.1
	c2.5,1.9,3.4,5.1,2,8.1C-102.8-99.7-104.8-96-106.9-91.9z M-106.8-110.3c-2.2,0-4.1,1.8-4.1,4c0,2,1.9,3.9,3.9,4
	c2.1,0,3.9-1.7,4-3.8C-102.8-108.4-104.5-110.3-106.8-110.3z"/>
<path class="st11" d="M74.9-44.1c-2.7-5.4-5.3-10.2-7.7-15.2c-1.8-3.7-0.7-8,2.3-10.3c3.1-2.4,7.5-2.5,10.6-0.1
	c3.2,2.5,4.4,6.7,2.6,10.5C80.2-54.3,77.6-49.5,74.9-44.1z M75-68.1c-2.9-0.1-5.4,2.4-5.3,5.2c0,2.6,2.5,5.1,5.1,5.2
	c2.7,0.1,5.1-2.2,5.2-4.9C80.1-65.7,77.9-68,75-68.1z"/>
<path class="st11" d="M-71.6-91.7c-0.8-0.3-0.8-0.3-0.8-1.2c0.1-1.9,0.2-3.7,0.3-5.6c0.1-1.3,0-2.6-0.3-3.9
	c-0.4-1.7-0.4-3.5-0.3-5.3c0.1-1.4,0.2-2.7,0.6-4c0.1-0.4,0.3-0.8,0.6-1.1c0.1-0.1,0.4-0.3,0.6-0.2c0.1,0,0.3,0.3,0.4,0.4
	c0.1,0.3,0.1,0.7,0.1,1c-0.1,2.7-0.2,5.5-0.3,8.2c0,1.1-0.2,2.2-0.1,3.4c0.1,2.3,0.3,4.6,0.5,6.9c0,0.1,0,0.1,0,0.2
	c0.1,0.8,0,0.9-0.8,1.2C-71.3-91.7-71.4-91.7-71.6-91.7z"/>
<path class="st11" d="M-75.9-113.2c0.1,0.3,0.1,0.7,0.2,1c0.1,1.5,0.3,2.9,0.3,4.4c0,0.4-0.1,0.9-0.3,1.2c-0.7,0.9-0.9,1.8-0.8,2.9
	c0.2,3.5,0.3,7.1,0.4,10.6c0,0.6-0.1,1.1-0.6,1.5c-0.1,0-0.3,0-0.4,0c-0.4-0.3-0.6-0.7-0.6-1.3c0.1-1.8,0.1-3.5,0.2-5.3
	c0.1-2.1,0.2-4.3,0.2-6.4c0-0.4-0.2-0.8-0.3-1.1c-0.3-0.5-0.6-1-0.9-1.5c0-0.2,0-0.5,0-0.7c0-0.1,0.1-0.2,0.1-0.2
	c0.1-1.7,0.2-3.3,0.3-5c0.1,0,0.1,0,0.2,0c0,0.1,0.1,0.3,0.1,0.4c0,1.1,0.1,2.3,0.1,3.4c0,0.1,0.1,0.2,0.2,0.3
	c0.1-0.1,0.2-0.2,0.2-0.3c0-0.6,0-1.1,0-1.7c0-0.7,0-1.4,0-2.2c0.1,0,0.1,0,0.2,0c0.1,1.4,0.1,2.8,0.2,4.2c0.1,0,0.1,0,0.2,0
	c0-0.1,0-0.2,0-0.3c0-1.1,0.1-2.2,0.1-3.4c0-0.2,0.1-0.3,0.1-0.5c0,0,0.1,0,0.1,0c0,0.2,0.1,0.3,0.1,0.5c0,1.1,0.1,2.2,0.1,3.4
	c0,0.1,0.1,0.2,0.1,0.3c0.1-0.1,0.1-0.2,0.1-0.3c0-0.9,0-1.7,0.1-2.6C-76.1-112.3-76-112.7-75.9-113.2
	C-76-113.2-75.9-113.2-75.9-113.2z"/>
<path class="st11" d="M108.8-44.5c-1-0.3-1-0.4-1-1.5c0.1-2.3,0.3-4.6,0.4-6.9c0.1-1.6,0-3.2-0.4-4.8c-0.5-2.1-0.5-4.3-0.4-6.5
	c0.1-1.7,0.2-3.3,0.7-4.9c0.2-0.5,0.4-1,0.7-1.4c0.1-0.2,0.5-0.3,0.7-0.3c0.2,0,0.4,0.3,0.5,0.5c0.1,0.4,0.1,0.8,0.1,1.2
	c-0.1,3.3-0.2,6.7-0.3,10c0,1.4-0.2,2.8-0.2,4.1c0.1,2.8,0.4,5.7,0.6,8.5c0,0.1,0,0.1,0,0.2c0.1,1,0,1.2-0.9,1.5
	C109.1-44.5,108.9-44.5,108.8-44.5z"/>
<path class="st11" d="M103.4-70.8c0.1,0.4,0.2,0.8,0.2,1.2c0.2,1.8,0.3,3.6,0.4,5.4c0,0.5-0.1,1.1-0.4,1.5c-0.9,1.1-1.1,2.2-1,3.5
	c0.2,4.3,0.3,8.7,0.5,13c0,0.7-0.1,1.3-0.7,1.8c-0.2,0-0.3,0-0.5,0c-0.5-0.4-0.7-0.9-0.7-1.5c0.1-2.2,0.2-4.3,0.3-6.5
	c0.1-2.6,0.2-5.3,0.3-7.9c0-0.5-0.2-0.9-0.4-1.4c-0.3-0.7-0.8-1.3-1.2-1.9c0-0.3,0-0.6,0-0.8c0-0.1,0.1-0.2,0.1-0.3
	c0.1-2,0.2-4.1,0.3-6.1c0.1,0,0.1,0,0.2,0c0,0.2,0.1,0.3,0.1,0.5c0.1,1.4,0.1,2.8,0.2,4.2c0,0.1,0.1,0.3,0.2,0.4
	c0.1-0.1,0.2-0.3,0.2-0.4c0-0.7,0-1.4,0-2.1c0-0.9,0-1.8,0.1-2.7c0.1,0,0.1,0,0.2,0c0.1,1.7,0.2,3.4,0.3,5.1c0.1,0,0.1,0,0.2,0
	c0-0.1,0.1-0.3,0.1-0.4c0-1.4,0.1-2.7,0.1-4.1c0-0.2,0.1-0.4,0.1-0.6c0,0,0.1,0,0.1,0c0,0.2,0.1,0.4,0.1,0.6c0,1.4,0.1,2.8,0.1,4.1
	c0,0.1,0.1,0.3,0.2,0.4c0.1-0.1,0.2-0.2,0.2-0.4c0-1.1,0-2.1,0.1-3.2c0-0.5,0.1-1,0.1-1.6C103.3-70.8,103.4-70.8,103.4-70.8z"/>
<path class="st12" d="M-47.5-111.3c-5.7,0-10.3,3.2-10.3,7.1c0,1.8,0.9,3.4,2.5,4.6l-0.8,5.2l3.9-3.5c1.4,0.5,3.1,0.8,4.8,0.8
	c5.7,0,10.3-3.2,10.3-7.1C-37.1-108.2-41.8-111.3-47.5-111.3z"/>
<path class="st12" d="M149.4-70.3c-6.9,0-12.5,3.8-12.5,8.6c0,2.1,1.1,4.1,3,5.5l-1,6.3l4.7-4.3c1.7,0.6,3.7,1,5.8,1
	c6.9,0,12.5-3.8,12.5-8.6C161.9-66.5,156.3-70.3,149.4-70.3z"/>
<g>
	<circle class="st13" cx="-19.6" cy="-102.9" r="11.6"/>
	<g>
		<polygon class="st8" points="-18,-95 -19,-95 -19,-103 -26,-103 -26,-104 -18,-104 		"/>
	</g>
</g>
<g>
	<circle class="st13" cx="188.7" cy="-57.6" r="13.8"/>
	<g>
		<polygon class="st8" points="191,-48 189,-48 189,-58 181,-58 181,-59 191,-59 		"/>
	</g>
</g>
<path class="st14" d="M7-112v4.4l0,0v11.2c-2-0.4-3.2-0.6-4.3-0.6c-2.4,0-5,1-5,2.3c0,1.3,2.3,2.3,4.7,2.3s4.7-1,4.7-2.3V-108h10
	v9.2c0-0.4-2-0.6-3.1-0.6c-2.4,0-4.4,1-4.4,2.3c0,1.3,2.4,2.3,4.8,2.3s4.8-1,4.8-2.3v-10.6v-2.3v-2.1H7z"/>
<polygon class="st14" points="7,-94.7 5,-94.7 5,-112 7.1,-112 "/>
<path class="st14" d="M225-70v5.7l0,0v14.6c-3-0.5-4.2-0.8-5.7-0.8c-3.2,0-6.6,1.3-6.6,3s3,3,6.2,3s6.2-1.3,6.2-3V-65h13v12.3
	c0-0.5-2.6-0.8-4.2-0.8c-3.2,0-5.8,1.3-5.8,3c0,1.7,2.8,3,6,3c3.2,0,6-1.3,6-3v-13.8v-3V-70H225z"/>
<polygon class="st14" points="224.8,-47.4 222.2,-47.4 222.2,-69.9 225,-69.9 "/>
<g>
	<path class="st13" d="M54-107.9c0-1.8-0.8-2.1-2.4-2.1H34.8c-1.6,0-2.8,0.3-2.8,2.1v11.1c0,1.8,1.2,3.8,2.8,3.8h16.9
		c1.6,0,2.4-2,2.4-3.8V-107.9z M39.5-107.7c-0.7,0-1.2-0.6-1.2-1.4s0.5-1.4,1.2-1.4s1.2,0.6,1.2,1.4S40.1-107.7,39.5-107.7z
		 M46.7-107.7c-0.7,0-1.2-0.6-1.2-1.4s0.5-1.4,1.2-1.4s1.2,0.6,1.2,1.4S47.4-107.7,46.7-107.7z"/>
	<path class="st2" d="M46.5-109L46.5-109c-0.3,0-0.5-0.2-0.5-0.5v-4.2c0-0.3,0.2-0.5,0.5-0.5l0,0c0.3,0,0.5,0.2,0.5,0.5v4.2
		C47-109.3,46.8-109,46.5-109z"/>
	<path class="st2" d="M39.5-109L39.5-109c-0.3,0-0.5-0.2-0.5-0.5v-4.2c0-0.3,0.2-0.5,0.5-0.5l0,0c0.3,0,0.5,0.2,0.5,0.5v4.2
		C40-109.3,39.8-109,39.5-109z"/>
	<rect x="33.7" y="-106.3" class="st1" width="18.6" height="9.9"/>
	<rect x="38.7" y="-102.8" class="st2" width="1.6" height="1.6"/>
	<rect x="40.8" y="-102.8" class="st2" width="1.6" height="1.6"/>
	<rect x="42.9" y="-102.8" class="st2" width="1.6" height="1.6"/>
	<rect x="44.9" y="-102.8" class="st2" width="1.6" height="1.6"/>
	<rect x="47" y="-102.8" class="st2" width="1.6" height="1.6"/>
	<rect x="38.7" y="-100.6" class="st2" width="1.6" height="1.6"/>
	<rect x="36.6" y="-100.6" class="st2" width="1.6" height="1.6"/>
	<rect x="40.8" y="-100.6" class="st2" width="1.6" height="1.6"/>
	<rect x="42.9" y="-100.6" class="st2" width="1.6" height="1.6"/>
	<rect x="44.9" y="-100.6" class="st2" width="1.6" height="1.6"/>
</g>
<g>
	<path class="st13" d="M277-62.7c0-2.1-1.5-2.3-3.5-2.3h-20.8c-2,0-2.7,0.1-2.7,2.3v13.2c0,2.1,0.7,4.5,2.7,4.5h20.8
		c2,0,3.5-2.4,3.5-4.5V-62.7z M258.5-62.4c-0.8,0-1.5-0.7-1.5-1.6s0.7-1.6,1.5-1.6s1.5,0.7,1.5,1.6S259.3-62.4,258.5-62.4z
		 M267.4-62.4c-0.8,0-1.5-0.7-1.5-1.6s0.7-1.6,1.5-1.6c0.8,0,1.5,0.7,1.5,1.6S268.2-62.4,267.4-62.4z"/>
	<path class="st2" d="M267.5-63.9h-0.2c-0.3,0-0.5-0.2-0.5-0.5v-5.2c0-0.3,0.2-0.5,0.5-0.5h0.2c0.3,0,0.5,0.2,0.5,0.5v5.2
		C268.1-64.1,267.8-63.9,267.5-63.9z"/>
	<path class="st2" d="M258.6-64h-0.2c-0.3,0-0.5-0.2-0.5-0.5v-5.2c0-0.3,0.2-0.5,0.5-0.5h0.2c0.3,0,0.5,0.2,0.5,0.5v5.2
		C259.2-64.3,258.9-64,258.6-64z"/>
	<rect x="252.4" y="-60.8" class="st1" width="22.1" height="11.8"/>
	<rect x="257.6" y="-56.6" class="st2" width="1.9" height="1.9"/>
	<rect x="260.1" y="-56.6" class="st2" width="1.9" height="1.9"/>
	<rect x="262.5" y="-56.6" class="st2" width="1.9" height="1.9"/>
	<rect x="265" y="-56.6" class="st2" width="1.9" height="1.9"/>
	<rect x="267.4" y="-56.6" class="st2" width="1.9" height="1.9"/>
	<rect x="257.6" y="-54" class="st2" width="1.9" height="1.9"/>
	<rect x="255.1" y="-54" class="st2" width="1.9" height="1.9"/>
	<rect x="260.1" y="-54" class="st2" width="1.9" height="1.9"/>
	<rect x="262.5" y="-54" class="st2" width="1.9" height="1.9"/>
	<rect x="265" y="-54" class="st2" width="1.9" height="1.9"/>
</g>
<g>
	<g>
		<path class="st15" d="M74.5-112.4c-5.4,0-9.8,4.4-9.8,9.8c0,2.5,1,4.9,2.6,6.6c1.9-1.8,4.4-2.9,7.3-2.9c2.8,0,5.3,1.1,7.2,2.9
			c1.6-1.7,2.5-4,2.5-6.6C84.3-108,79.9-112.4,74.5-112.4z M74.5-100.1c-2,0-3.5-1.6-3.5-3.5c0-2,1.6-3.5,3.5-3.5s3.5,1.6,3.5,3.5
			C78.1-101.6,76.5-100.1,74.5-100.1z"/>
		<path class="st8" d="M74.5-92.8c2.9,0,5.5-1.2,7.3-3.2c-1.9-1.8-4.4-2.9-7.2-2.9c-2.8,0-5.4,1.1-7.3,2.9
			C69-94,71.6-92.8,74.5-92.8z"/>
	</g>
</g>
<g>
	<g>
		<path class="st15" d="M306.6-71.6c-7.8,0-14.1,6.3-14.1,14.1c0,3.7,1.4,7,3.7,9.5c2.7-2.6,6.4-4.2,10.4-4.2c4,0,7.7,1.6,10.4,4.2
			c2.3-2.5,3.6-5.8,3.6-9.4C320.6-65.3,314.3-71.6,306.6-71.6z M306.6-53.9c-2.8,0-5.1-2.3-5.1-5.1s2.3-5.1,5.1-5.1s5.1,2.3,5.1,5.1
			S309.4-53.9,306.6-53.9z"/>
		<path class="st8" d="M306.6-43.4c4.1,0,7.9-1.8,10.4-4.6c-2.7-2.6-6.4-4.2-10.4-4.2c-4.1,0-7.7,1.6-10.4,4.2
			C298.8-45.2,302.5-43.4,306.6-43.4z"/>
	</g>
</g>
<path class="st16" d="M98.3-100.1c-0.1-1.3-0.2-2.6-0.3-3.9c-0.1-1.2-0.2-2.4-0.3-3.6c0-0.6,0-0.8,0.6-1c0.7-0.2,1.4-0.4,2.1-0.5
	c2.9-0.4,5.9-0.4,8.8,0.2c0.1,0,0.3,0.1,0.4,0.1c1.1,0.3,1.2,0.5,1.1,1.6c-0.2,2.3-0.3,4.6-0.5,6.9c0,0.1,0,0.1,0,0.2
	c0.9,0.2,1.8,0.3,2.7,0.5c0.4,0.1,0.8,0.3,1.2,0.5c0.5,0.3,0.5,0.7,0.2,1.1c-0.4,0.4-0.9,0.8-1.4,1.1c-1.6,0.9-3.4,1.3-5.2,1.5
	c-3.4,0.5-6.7,0.3-9.9-0.7c-1-0.3-2-0.8-2.9-1.3c-0.5-0.2-1-0.6-0.9-1.3c0.1-0.6,0.7-0.8,1.1-0.9C96.2-99.7,97.3-99.9,98.3-100.1
	c0,0.2,0,0.3,0,0.5c0,1.6,0.1,1.8,1.8,2.1c2.3,0.5,4.6,0.5,6.9,0.2c0.9-0.1,1.8-0.4,2.7-0.6c0.2,0,0.4-0.2,0.4-0.3
	c0.1-0.6,0.1-1.1,0.1-1.8c-1.8,0.7-3.6,0.9-5.4,0.9c-2,0-3.9-0.1-5.8-0.7C98.7-99.8,98.5-100,98.3-100.1z"/>
<path class="st16" d="M339.4-54.4c-0.2-1.9-0.3-3.8-0.5-5.7c-0.1-1.8-0.2-3.5-0.4-5.3c-0.1-0.9,0-1.2,0.9-1.5c1-0.3,2-0.6,3-0.8
	c4.3-0.6,8.6-0.6,12.8,0.3c0.2,0,0.4,0.1,0.6,0.2c1.6,0.5,1.7,0.7,1.6,2.3c-0.2,3.4-0.5,6.7-0.7,10.1c0,0.1,0,0.2,0,0.2
	c1.3,0.3,2.6,0.5,3.9,0.8c0.6,0.2,1.2,0.4,1.8,0.8c0.7,0.4,0.8,1.1,0.3,1.7c-0.6,0.6-1.3,1.2-2,1.6c-2.3,1.3-4.9,1.9-7.5,2.2
	c-4.9,0.7-9.7,0.5-14.5-1c-1.5-0.4-2.9-1.2-4.2-1.9c-0.7-0.4-1.4-0.9-1.3-1.8c0.1-0.9,0.9-1.2,1.7-1.4
	C336.3-53.8,337.9-54.1,339.4-54.4c0,0.2,0,0.5,0,0.8c0.1,2.4,0.2,2.6,2.6,3.1c3.3,0.7,6.7,0.7,10,0.3c1.3-0.1,2.6-0.6,4-0.9
	c0.2-0.1,0.6-0.3,0.6-0.5c0.1-0.8,0.1-1.7,0.2-2.6c-2.6,1-5.2,1.3-7.9,1.3c-2.9,0-5.7-0.1-8.5-1C340-54,339.7-54.3,339.4-54.4z"/>
<ellipse cx="133" cy="-95.3" rx="15.9" ry="1.4"/>
<path d="M131.8-106.8c-4.6,1.6-6.3,5.3-6.6,9.9c-0.3,0-0.6,0-0.9,0c-0.3,0-0.5,0-0.8,0c-0.5-4.1,2.2-9.7,8.3-10.6
	c-0.3-0.5-0.6-1-0.3-1.6c0.1-0.3,0.3-0.6,0.6-0.8c0.6-0.5,1.4-0.4,2,0.1c0.6,0.6,0.6,1.3,0.1,2.3c3.2,0.5,5.7,2.2,7.2,5.1
	c0.9,1.7,1.3,3.5,1.1,5.5c-5.3,0-10.5,0-15.8,0C126.8-99.9,127.6-103.8,131.8-106.8z"/>
<ellipse cx="383.9" cy="-47.3" rx="21.6" ry="1.9"/>
<path d="M382.3-62.8c-6.3,2.2-8.5,7.1-9,13.4c-0.4,0-0.8,0-1.2,0c-0.4,0-0.7,0-1.1,0c-0.7-5.5,3-13.1,11.2-14.4
	c-0.4-0.7-0.8-1.4-0.5-2.1c0.2-0.4,0.5-0.8,0.8-1.1c0.8-0.6,1.9-0.5,2.7,0.2c0.8,0.8,0.9,1.8,0.1,3.1c4.4,0.7,7.7,3,9.8,6.9
	c1.2,2.3,1.7,4.8,1.5,7.4c-7.1,0-14.3,0-21.4,0C375.4-53.5,376.5-58.8,382.3-62.8z"/>
<path d="M424-72.5c-8,0-14.5,6.5-14.5,14.5S416-43.5,424-43.5S438.5-50,438.5-58S432-72.5,424-72.5z M431-57h-6v6h-2v-6h-6v-2h6v-6
	h2v6h6V-57z"/>
<path d="M467.8-72.6c-8,0-14.5,6.5-14.5,14.5s6.5,14.5,14.5,14.5s14.5-6.5,14.5-14.5S475.8-72.6,467.8-72.6z M466.6-45.8
	c0,0,0.4,0,0.4,0c0-0.2,0-0.4,0-0.7c0-2.9-0.5-5.9-0.5-8.8c0-0.8-0.3-0.9-1.1-0.9c-1.2,0-2.4,0-3.7,0c2.7-4.8,4.9-9.5,7.6-14.1
	c0,0-0.2,0-0.2,0c0,0.2,0,0.4,0,0.7c0,2.9,0.3,5.9,0.3,8.8c0,0.9,0.2,0.9,1.1,0.9c1.2,0,2.6,0,3.9,0
	C471.6-55.2,469.3-50.5,466.6-45.8z"/>
<g>
	<circle cx="512.7" cy="-57.6" r="14.7"/>
	<path class="st17" d="M510.2-63.5c4-0.4,4.1-0.3,4.1,3.5c0,2.6,0.1,5.3,0,7.9c0,1.2,0.3,1.9,1.6,2.1c0.4,0.1,0.8,0.5,1.2,0.8
		c-0.5,0.1-0.9,0.4-1.4,0.4c-2.1,0-4.1,0-6.2,0c-0.3,0-0.7-0.3-1-0.5c0.3-0.2,0.5-0.6,0.8-0.6c1.7-0.2,2-1.2,1.9-2.7
		c-0.1-2,0-4.1,0-6.2c0-1.4,0.4-2.9-0.9-4C510.1-62.8,510.2-63.2,510.2-63.5z"/>
	<path class="st17" d="M514.4-67.6c-0.1,1.1-0.7,1.6-1.7,1.6c-1,0-1.5-0.6-1.5-1.6c0-1.1,0.6-1.6,1.7-1.6
		C513.9-69.3,514.4-68.6,514.4-67.6z"/>
</g>
<path d="M568.5-61.8c0,0.2-0.1,0.4-0.3,0.6c-0.9,0.7-1.9,1.5-2.8,2.2c-0.1,0.1-0.1,0.1-0.1,0.2c0.1,0.8,0.1,1.6,0,2.4
	c0,0.1,0,0.2,0.1,0.2c0.9,0.7,1.9,1.5,2.8,2.2c0.3,0.2,0.4,0.5,0.3,0.8c0,0.1-0.1,0.1-0.1,0.2c-0.9,1.6-1.8,3.2-2.7,4.7
	c-0.2,0.4-0.6,0.5-1,0.3c-1.1-0.4-2.2-0.9-3.3-1.3c-0.1,0-0.2,0-0.3,0c-0.7,0.5-1.4,0.9-2.1,1.2c-0.1,0-0.1,0.1-0.1,0.2
	c-0.2,1.2-0.3,2.3-0.5,3.5c-0.1,0.4-0.3,0.7-0.8,0.7c-1.8,0-3.7,0-5.5,0c-0.4,0-0.7-0.3-0.8-0.7c-0.2-1.2-0.3-2.3-0.5-3.5
	c0-0.1-0.1-0.1-0.1-0.2c-0.8-0.3-1.5-0.8-2.2-1.3c-0.1-0.1-0.2-0.1-0.3,0c-1.1,0.4-2.2,0.9-3.3,1.3c-0.4,0.2-0.8,0.1-1-0.3
	c-0.9-1.6-1.8-3.1-2.7-4.7c-0.3-0.4-0.2-0.8,0.2-1.1c0.9-0.7,1.8-1.4,2.7-2.1c0.1-0.1,0.1-0.1,0.1-0.3c-0.1-0.8-0.1-1.6,0-2.4
	c0-0.1,0-0.2-0.1-0.2c-0.9-0.7-1.9-1.5-2.8-2.2c-0.4-0.3-0.4-0.6-0.2-1c0.9-1.6,1.8-3.2,2.7-4.7c0.2-0.4,0.6-0.5,1-0.3
	c1.1,0.4,2.2,0.9,3.3,1.3c0.1,0,0.2,0,0.3,0c0.7-0.5,1.4-0.9,2.1-1.2c0.1,0,0.2-0.1,0.2-0.2c0.2-1.2,0.3-2.3,0.5-3.5
	c0.1-0.4,0.3-0.7,0.8-0.7c1.8,0,3.7,0,5.5,0c0.4,0,0.7,0.3,0.8,0.7c0.2,1.2,0.3,2.3,0.5,3.5c0,0.1,0.1,0.1,0.1,0.2
	c0.8,0.3,1.5,0.8,2.2,1.3c0.1,0.1,0.2,0,0.2,0c1.1-0.4,2.2-0.9,3.3-1.3c0.4-0.2,0.8-0.1,1,0.3c0.9,1.6,1.8,3.2,2.7,4.7
	C568.4-62.1,568.4-62,568.5-61.8z M554.7-52.7c2.7,0,4.9-2.2,4.9-4.9c0-2.7-2.2-4.9-4.9-4.9c-2.7,0-4.9,2.2-5,4.9
	C549.8-54.9,552-52.7,554.7-52.7z"/>
<g>
	<path d="M601.4-43.7h-24c-0.7,0-1.3-0.6-1.3-1.3v-24.2c0-0.7,0.6-1.3,1.3-1.3h24c0.7,0,1.3,0.6,1.3,1.3v24.2
		C602.8-44.3,602.2-43.7,601.4-43.7z"/>
	<path class="st1" d="M601-65.4h-23.1c-0.1,0-0.3-0.1-0.3-0.3v-3.7c0-0.1,0.1-0.3,0.3-0.3H601c0.1,0,0.3,0.1,0.3,0.3v3.7
		C601.2-65.5,601.1-65.4,601-65.4z"/>
	<circle class="st1" cx="595" cy="-61.4" r="1"/>
	<circle class="st1" cx="600.2" cy="-61.4" r="1"/>
	<circle class="st1" cx="600.2" cy="-55.9" r="1"/>
	<circle class="st1" cx="584.7" cy="-61.4" r="1"/>
	<circle class="st1" cx="590" cy="-61.4" r="1"/>
	<circle class="st1" cx="589.5" cy="-55.9" r="1"/>
	<circle class="st1" cx="579.3" cy="-55.9" r="1"/>
	<circle class="st1" cx="584.5" cy="-55.9" r="1"/>
	<circle class="st1" cx="589.5" cy="-50.5" r="1"/>
	<circle class="st1" cx="595" cy="-50.5" r="1"/>
	<circle class="st1" cx="600.4" cy="-50.5" r="1"/>
	<circle class="st1" cx="579.3" cy="-50.5" r="1"/>
	<circle class="st1" cx="584.5" cy="-50.5" r="1"/>
	<circle class="st1" cx="595" cy="-56.1" r="1.8"/>
</g>
<path d="M632.4-54.9c0,0.4,0,0.7,0,1c0,3.1,0,6.1,0,9.2c0,1.1,0.3,1.3,1.3,1.3c2.1,0,4.2,0,6.4,0c1.1,0,1.3-0.3,1.3-1.4
	c0-5.5,0-11,0-16.5c0-0.6-0.2-1.1-0.7-1.5c-3.9-3-7.8-6-11.7-9.1c-0.7-0.5-1.2-0.5-1.9,0c-3.8,3-7.5,6-11.3,9.1
	c-0.4,0.3-0.7,0.9-0.7,1.4c0,5.5,0,11,0,16.6c0,1.1,0.3,1.3,1.3,1.4c2.1,0,4.2,0,6.3,0c1.1,0,1.4-0.3,1.4-1.4c0-3.1,0-6.1,0-9.2
	c0-0.3,0-0.6,0-1C626.9-54.9,629.6-54.9,632.4-54.9z"/>
<g>
	<path class="st18" d="M-120.8,57.1L-120.8,57.1c-3.4,0-6.5-1.5-8.7-4l-18.2-21.4c-3.4-4-4.3-9.6-2.4-14.6c1.9-4.9,6.1-8.1,11.2-8.8
		c0.7-0.1,1.3-0.1,2-0.1c6.6,0,12.6,4,16.3,10.6c3.9-7,10.5-11,17.3-10.6c5.3,0.3,9.8,3.5,11.9,8.5c2.2,5.1,1.3,10.9-2.4,15.1
		l-18.5,21.4C-114.4,55.6-117.5,57.1-120.8,57.1z M-136.9,10.7c-0.6,0-1.1,0-1.7,0.1c-4.1,0.5-7.5,3.2-9.1,7.1
		c-1.6,4.1-0.8,8.6,2,11.9l18.2,21.4c1.7,2,4.1,3.1,6.7,3.1l0,0c2.5,0,5-1.1,6.6-3L-95.7,30c2.9-3.4,3.7-8.1,1.9-12.3
		c-1.7-4.1-5.3-6.6-9.6-6.9c-0.3,0-0.5,0-0.8,0c-6.1,0-11.8,4.2-14.9,11l0.1,0.1l-0.8,1.4l-1.4,0l-0.8-1.2l0.1-0.3
		C-125.1,14.9-130.8,10.7-136.9,10.7z"/>
</g>
<g>
	<path class="st18" d="M-51.1,56.8c-6.3,0-12.5-1-18.2-3c-2.9-1-5.5-2.6-8.2-4.1l-0.2-0.1c-2.8-1.6-3.1-3.6-3-5.1
		c0.3-2.9,3-3.6,4-3.9c2.1-0.6,4.3-1.1,6.4-1.6c0.6-0.1,1.2-0.3,1.8-0.4l-0.2-3.3c-0.2-2.8-0.4-5.7-0.6-8.5
		c-0.1-1.9-0.2-3.8-0.4-5.6c-0.1-2-0.3-4.1-0.4-6.1c-0.2-2.2,0.2-3.5,2.3-4.3c1.6-0.6,3.8-1.4,6-1.8c9.2-1.5,17.6-1.2,25.3,0.7
		c0.4,0.1,0.8,0.2,1.3,0.4c3.5,1.3,4,2.1,3.8,6.2c-0.4,5.6-0.7,11.3-1,16.9l-0.3,5l0,0l0,0.4l1.5,0.3c1.8,0.4,3.6,0.8,5.4,1.3
		c1.2,0.4,2.5,1,3.7,1.9c0.9,0.6,1.4,1.5,1.5,2.5c0.1,0.9-0.2,1.9-0.9,2.7c-1.3,1.5-2.7,2.8-4.1,3.7c-4,2.5-8.8,4.1-15,5.1
		C-44.2,56.5-47.7,56.8-51.1,56.8z M-68.6,40.6c-0.4,0.1-0.8,0.2-1.3,0.3c-2.1,0.5-4.3,1-6.3,1.6c-1.7,0.5-2.4,1.1-2.6,2.2
		c-0.1,1.2,0.5,2.2,2,3.1l0.2,0.1c2.5,1.5,5.1,3,7.8,4c8.5,3,17.8,3.7,27.7,2.1c5.9-0.9,10.5-2.5,14.3-4.8c1.2-0.8,2.5-1.9,3.6-3.3
		c0.2-0.3,0.5-0.7,0.4-1.1c0-0.4-0.3-0.8-0.7-1.1c-1-0.7-2.1-1.3-3.1-1.6c-1.7-0.5-3.4-0.9-5.3-1.3c-0.4-0.1-0.8-0.2-1.2-0.3l0,0.9
		c-0.1,1.5-0.1,2.9-0.3,4.2c-0.1,1-1.2,1.7-1.9,1.9c-0.6,0.2-1.2,0.4-1.8,0.6c-2,0.6-4,1.3-6.1,1.5c-7.5,0.9-13.8,0.7-19.8-0.7
		c-5.1-1.2-5.7-2-5.8-7.8C-68.6,40.9-68.6,40.7-68.6,40.6z M-66.6,41.1c0.1,4.8,0.1,4.8,4.3,5.8c5.8,1.4,11.9,1.6,19.1,0.7
		c1.9-0.2,3.8-0.8,5.7-1.4c0.6-0.2,1.2-0.4,1.8-0.6c0.2,0,0.4-0.3,0.5-0.4c0.1-1.2,0.2-2.5,0.3-4l0-0.1c-5.3,2.1-10.4,2.4-14.3,2.5
		l-1.6,0c-4.2,0-9.8-0.3-15.3-2.3C-66.3,41.3-66.5,41.2-66.6,41.1z M-66.5,38.8c0,0,0.1,0.1,0.1,0.1c0.4,0.3,0.7,0.5,1,0.6
		c5.2,1.9,10.6,2.2,14.6,2.2l1.5,0c4-0.1,9.2-0.4,14.5-2.7c0-0.1,0-0.2,0-0.3l0.3-5.6c0.3-5.6,0.7-11.3,1-16.9
		c0.2-3.2,0.2-3.2-2.5-4.2c-0.4-0.1-0.7-0.2-1.1-0.3c-7.5-1.9-15.6-2.1-24.6-0.7c-2,0.3-4.1,1.1-5.7,1.7c-1.1,0.4-1.2,0.6-1.1,2.3
		c0.1,2,0.3,4.1,0.4,6.1c0.1,1.9,0.2,3.7,0.4,5.6c0.2,2.8,0.4,5.6,0.6,8.4l0.2,3l0.2,0L-66.5,38.8z"/>
</g>
<path class="st18" d="M55.8,23.5L55.8,23.5l-0.1-0.4l-0.9-2.3L54.6,21C50.5,12.7,41.9,7.2,32.5,7.2C19.3,7.2,8.6,17.5,7.8,30.5
	l-0.2-0.2L7.7,33l0,0.4l0,0c0.7,13.2,11.5,23.4,24.7,23.4c13.7,0,24.8-11.1,24.8-24.8C57.3,29.1,56.8,26.2,55.8,23.5z M9.7,32
	c0-12.6,10.2-22.8,22.8-22.8c9.2,0,17.7,5.7,21.1,14.2L45,43.7l-8-23.1L28.5,41L21,25l-6.7,12.7l-4.6-5.1C9.7,32.4,9.7,32.2,9.7,32z
	 M32.5,54.9c-11.3,0-20.6-8.1-22.5-18.9l4.7,5.2l6.2-11.7l7.7,16.5l8.2-19.7l8,23l9.7-23c0.5,1.9,0.7,3.8,0.7,5.8
	C55.3,44.6,45.1,54.9,32.5,54.9z"/>
<path class="st1" d="M137.8,29.4c0,1.5,0,3,0,4.5c-0.1,0.2-0.2,0.5-0.2,0.7c-1.6,12.7-8.3,21.2-19.9,25.5c-2.1,0.8-4.5,1-6.7,1.5
	c-1.5,0-2.9,0-4.4,0c-0.2-0.1-0.5-0.2-0.7-0.2c-12.3-1.7-20.5-8.6-24.6-20.6c-0.8-2.2-1-4.6-1.5-7c0-1.5,0-3,0-4.5
	c0.1-0.2,0.2-0.5,0.2-0.7C81.6,16,88.3,7.5,99.9,3.2c2.1-0.8,4.5-1,6.7-1.5c1.5,0,2.9,0,4.4,0c0.2,0.1,0.5,0.2,0.7,0.2
	c12.3,1.7,20.5,8.6,24.6,20.6C137.1,24.7,137.3,27.1,137.8,29.4z"/>
<path class="st9" d="M115.8,14.3c-1.7,0-3.3,0-4.9,0c-4.5,0-7,2.6-7,7.3c0,1.2,0,2.4,0,3.8c-1.2,0-2.2,0-3.2,0c0,2.1,0,4,0,6
	c1.1,0,2.1,0,3.2,0c0,5.7,0,11.3,0,16.9c2.3,0,4.5,0,6.8,0c0-5.6,0-11.2,0-16.9c1.4,0,2.6,0,3.8,0c0.3,0,0.8-0.3,0.9-0.4
	c0.2-1.8,0.4-3.7,0.6-5.6c-1.8,0-3.4,0-5.2,0c0-1.2,0-2.3,0-3.4c0-1.1,0.5-1.7,1.6-1.7c1.1,0,2.2,0,3.4,0
	C115.8,18.2,115.8,16.3,115.8,14.3z"/>
<path class="st1" d="M214.9,31.5c-0.1,16.5-13.2,29.5-29.8,29.4c-16.6-0.1-29.5-13.2-29.5-29.9c0-16,13.5-29.7,30.3-29.4
	C202,1.9,215,15.1,214.9,31.5z"/>
<path class="st10" d="M186.2,33.9c-0.4,2.9-2.4,4.9-5.3,5.3c-4,0.6-7.3-1-8.9-4.4c-1.6-3.3-0.9-7.2,1.9-9.7
	c2.9-2.6,6.5-2.7,10.7-0.1c1.2-1.3,2.4-2.6,3.6-3.9c-3.7-3.8-10.6-4.7-15.4-2c-6,3.4-8.7,9.9-6.7,16.1c2.1,6.5,8.2,10.4,15.1,9.6
	c8.3-1,11.6-8.1,11.1-14.6c-0.1-0.9-0.3-1.6-1.5-1.6c-3.5,0.1-7,0-10.6,0.1c-0.4,0-1.1,0.6-1.2,0.9c-0.1,1.4-0.1,2.8-0.1,4.3
	C181.4,33.9,183.7,33.9,186.2,33.9z"/>
<path class="st10" d="M200.7,32.7c0,0.8,0,1.4,0,2c0,3.7,0,3.7,3.8,3.4c0.1,0,0.2-0.1,0.6-0.3c0-1.6,0-3.3,0-5.2c1.9,0,3.6,0,5.3,0
	c0-1.5,0-2.8,0-4.3c-1.8,0-3.6,0-5.5,0c0-1.9,0-3.6,0-5.3c-1.5,0-2.8,0-4.3,0c0,1.8,0,3.5,0,5.2c-0.7,0-1.3,0.1-1.8,0.1
	c-3.8,0-3.8,0-3.5,3.9c0,0.1,0.1,0.2,0.3,0.5C197.2,32.7,198.8,32.7,200.7,32.7z"/>
<path class="st1" d="M262.8,11.2c7.2,0,14.4,0,21.6,0c4.6,0,7.5,2.8,7.5,7.4c0,9.4,0,18.7,0,28.1c0,4.5-2.9,7.3-7.4,7.3
	c-14.5,0-29,0-43.6,0c-4.3,0-7.3-2.9-7.3-7.2c0-9.5,0-19,0-28.5c0-4.2,3-7.1,7.2-7.1C248.2,11.2,255.5,11.2,262.8,11.2z M286.6,20.8
	c-8,5.7-15.8,11.2-23.6,16.7c-8-6.1-15.9-12-24-18.1c-0.1,0.6-0.1,0.9-0.1,1.1c0,8.6,0,17.1,0,25.7c0,1.9,0.6,2.4,2.5,2.4
	c14.1,0,28.2,0,42.3,0c2.7,0,3-0.4,3-3c0-7.7,0-15.3,0-23C286.7,22.1,286.6,21.6,286.6,20.8z M263.1,31c6.7-4.8,13.4-9.5,20.3-14.5
	c-13.3,0-26.2,0-39.4,0C250.6,21.5,256.8,26.2,263.1,31z"/>
<path class="st1" d="M351.5,54.2c-3.5-0.1-6.2-0.7-8.7-2.2c-8.7-5.1-15.1-12.4-18.8-21.8c-1.8-4.5-1.7-9.1,1-13.4
	c1.3-2.1,3.2-3.6,5.2-5.1c1-0.8,2.2-0.7,3.3,0.1c0.1,0.1,0.3,0.2,0.4,0.3c2.1,2.4,4,4.9,4.9,8c0.4,1.5,0,2.8-1.1,3.8
	c-0.8,0.8-1.8,1.5-2.7,2.3c-1.4,1-1.8,2.3-1.4,4c0.5,2,1.6,3.6,2.9,5.2c2,2.5,4,4.9,6.7,6.7c2.4,1.5,3.8,1.3,5.8-0.7
	c0.7-0.7,1.4-1.3,2.1-1.9c1.4-1.1,2.9-1.2,4.4-0.4c2.7,1.4,4.9,3.3,6.7,5.6c1.2,1.5,1,3-0.5,4.3c-2.1,1.9-4.2,3.9-7.1,4.5
	C353.4,53.9,352.1,54.1,351.5,54.2z"/>
<path class="st11" d="M433.7,58.5c-5.5-10.8-10.7-20.5-15.4-30.4c-3.5-7.5-1.4-16,4.6-20.7c6.1-4.9,15-5,21.2-0.2
	c6.5,4.9,8.8,13.4,5.1,21.1C444.5,38.1,439.2,47.8,433.7,58.5z M434,10.5c-5.7-0.1-10.8,4.8-10.7,10.4c0.1,5.2,5,10.2,10.3,10.3
	c5.4,0.1,10.2-4.4,10.5-9.9C444.3,15.3,439.9,10.6,434,10.5z"/>
<path class="st11" d="M501.6,57.8c-2-0.7-2-0.7-1.9-2.9c0.3-4.6,0.5-9.2,0.8-13.8c0.2-3.2,0-6.4-0.7-9.6c-1-4.3-1-8.6-0.8-12.9
	c0.1-3.3,0.4-6.6,1.4-9.8c0.3-1,0.8-1.9,1.4-2.8c0.2-0.4,1-0.6,1.4-0.6c0.4,0.1,0.8,0.7,0.9,1.1c0.2,0.8,0.3,1.7,0.3,2.5
	c-0.2,6.7-0.4,13.4-0.6,20.1c-0.1,2.8-0.5,5.5-0.4,8.3c0.2,5.7,0.7,11.4,1.1,17c0,0.1,0,0.3,0.1,0.4c0.2,2.1,0.1,2.3-1.9,3
	C502.3,57.8,502,57.8,501.6,57.8z"/>
<path class="st11" d="M491,5.1c0.1,0.8,0.3,1.6,0.4,2.4c0.3,3.6,0.7,7.2,0.8,10.8c0,1-0.2,2.3-0.9,3c-1.8,2.1-2.1,4.4-2,7.1
	c0.4,8.7,0.7,17.3,1,26c0.1,1.4-0.2,2.7-1.5,3.6c-0.3,0-0.7,0-1,0c-1.1-0.8-1.4-1.8-1.4-3.1c0.2-4.3,0.4-8.7,0.5-13
	c0.2-5.3,0.5-10.5,0.6-15.8c0-0.9-0.4-1.9-0.8-2.7c-0.7-1.3-1.5-2.5-2.3-3.8c0-0.6,0-1.1,0-1.7c0.1-0.2,0.1-0.4,0.2-0.6
	c0.2-4.1,0.5-8.1,0.7-12.2c0.1,0,0.3,0,0.4,0c0.1,0.3,0.1,0.7,0.2,1c0.1,2.8,0.2,5.6,0.3,8.5c0,0.3,0.3,0.5,0.4,0.8
	c0.2-0.3,0.4-0.5,0.4-0.8c0-1.4,0-2.8,0-4.2c0-1.8,0.1-3.5,0.1-5.3c0.1,0,0.3,0,0.4,0c0.2,3.4,0.3,6.8,0.5,10.3c0.1,0,0.3,0,0.4,0
	c0-0.3,0.1-0.5,0.1-0.8c0.1-2.8,0.1-5.5,0.2-8.3c0-0.4,0.1-0.8,0.2-1.2c0.1,0,0.1,0,0.2,0c0.1,0.4,0.2,0.8,0.2,1.2
	c0.1,2.8,0.1,5.5,0.2,8.3c0,0.3,0.2,0.5,0.3,0.8c0.1-0.2,0.4-0.5,0.4-0.7c0.1-2.1,0.1-4.3,0.1-6.4c0-1,0.1-2.1,0.2-3.1
	C490.8,5.1,490.9,5.1,491,5.1z"/>
<path class="st12" d="M577.1,9c-13.8,0-24.9,7.7-24.9,17.2c0,4.2,2.2,8.1,5.9,11.1l-1.9,12.6l9.4-8.5c3.5,1.3,7.4,2,11.6,2
	c13.8,0,24.9-7.7,24.9-17.2C602,16.7,590.9,9,577.1,9z"/>
<g>
	<circle class="st13" cx="657.8" cy="35.4" r="27.7"/>
	<g>
		<polygon class="st8" points="662.4,54.7 658.4,54.7 658.4,34.7 642.4,34.7 642.4,32.7 662.4,32.7 		"/>
	</g>
</g>
<path class="st14" d="M734.5,8.7V20l0,0v29.2c-6-1-8.4-1.7-11.4-1.7c-6.3,0-13.2,2.7-13.2,6s6,6,12.3,6s12.3-2.7,12.3-6V18.7h26
	v24.6c0-1-5.3-1.7-8.3-1.7c-6.3,0-11.7,2.7-11.7,6s5.7,6,12,6c6.3,0,12-2.7,12-6V20v-5.9V8.7H734.5z"/>
<polygon class="st14" points="734.2,54 728.9,54 728.9,8.8 734.4,8.8 "/>
<g>
	<path class="st13" d="M834.7,21.2c0-4.3-3.1-4.5-7-4.5H786c-3.9,0-5.4,0.2-5.4,4.5v26.5c0,4.3,1.5,9.1,5.4,9.1h41.7
		c3.9,0,7-4.8,7-9.1V21.2z M797.6,21.8c-1.6,0-3-1.4-3-3.2s1.3-3.2,3-3.2s3,1.4,3,3.2S799.3,21.8,797.6,21.8z M815.5,21.8
		c-1.6,0-3-1.4-3-3.2s1.3-3.2,3-3.2s3,1.4,3,3.2S817.1,21.8,815.5,21.8z"/>
	<path class="st2" d="M816.3,18.9l-1.5,0c-0.3,0-0.5-0.2-0.5-0.5V7c0-0.3,0.2-0.5,0.5-0.5h1.5c0.3,0,0.5,0.2,0.5,0.5v11.4
		C816.8,18.7,816.6,18.9,816.3,18.9z"/>
	<path class="st2" d="M798.4,18.6h-1.5c-0.3,0-0.5-0.2-0.5-0.5V6.7c0-0.3,0.2-0.5,0.5-0.5h1.5c0.3,0,0.5,0.2,0.5,0.5v11.4
		C798.9,18.4,798.7,18.6,798.4,18.6z"/>
	<rect x="785.3" y="25" class="st1" width="44.3" height="23.5"/>
	<rect x="795.8" y="33.5" class="st2" width="3.7" height="3.7"/>
	<rect x="800.7" y="33.5" class="st2" width="3.7" height="3.7"/>
	<rect x="805.6" y="33.5" class="st2" width="3.7" height="3.7"/>
	<rect x="810.6" y="33.5" class="st2" width="3.7" height="3.7"/>
	<rect x="815.5" y="33.5" class="st2" width="3.7" height="3.7"/>
	<rect x="795.8" y="38.7" class="st2" width="3.7" height="3.7"/>
	<rect x="790.8" y="38.7" class="st2" width="3.7" height="3.7"/>
	<rect x="800.7" y="38.7" class="st2" width="3.7" height="3.7"/>
	<rect x="805.6" y="38.7" class="st2" width="3.7" height="3.7"/>
	<rect x="810.6" y="38.7" class="st2" width="3.7" height="3.7"/>
</g>
<g>
	<g>
		<path class="st15" d="M891.9,6.5c-15.6,0-28.2,12.6-28.2,28.2c0,7.3,2.8,14,7.4,19c5.4-5.2,12.8-8.5,20.9-8.5
			c8.1,0,15.4,3.2,20.8,8.3c4.5-5,7.3-11.6,7.3-18.9C920.1,19.1,907.5,6.5,891.9,6.5z M892,42c-5.6,0-10.2-4.6-10.2-10.2
			s4.6-10.2,10.2-10.2c5.6,0,10.2,4.6,10.2,10.2S897.6,42,892,42z"/>
		<path class="st8" d="M891.9,62.9c8.3,0,15.8-3.6,20.9-9.3c-5.4-5.2-12.7-8.3-20.8-8.3c-8.1,0-15.5,3.2-20.9,8.5
			C876.2,59.3,883.7,62.9,891.9,62.9z"/>
	</g>
</g>
<path class="st16" d="M957.7,41.8c-0.3-3.8-0.7-7.5-1-11.3c-0.3-3.5-0.5-7-0.8-10.5c-0.1-1.7,0.1-2.4,1.8-3c2-0.7,4-1.3,6-1.6
	c8.6-1.2,17.2-1.2,25.7,0.6c0.4,0.1,0.8,0.2,1.2,0.3c3.2,1,3.4,1.4,3.2,4.7c-0.5,6.7-1,13.5-1.4,20.2c0,0.2,0,0.4,0,0.5
	c2.6,0.5,5.2,1,7.8,1.6c1.2,0.3,2.4,0.9,3.5,1.6c1.3,0.9,1.6,2.2,0.5,3.3c-1.2,1.2-2.5,2.3-4,3.1c-4.7,2.5-9.8,3.7-15.1,4.4
	c-9.8,1.4-19.5,1-29-1.9c-2.9-0.9-5.7-2.3-8.5-3.7c-1.4-0.7-2.8-1.8-2.6-3.6c0.2-1.8,1.9-2.4,3.3-2.8
	C951.5,43,954.6,42.5,957.7,41.8c0,0.5-0.1,1-0.1,1.5c0.1,4.8,0.4,5.2,5.2,6.2c6.6,1.4,13.3,1.4,20,0.7c2.7-0.3,5.3-1.1,7.9-1.8
	c0.5-0.1,1.1-0.6,1.2-1c0.2-1.7,0.3-3.4,0.4-5.2c-5.2,2.1-10.5,2.6-15.8,2.7c-5.8,0.1-11.5-0.2-17-2
	C958.9,42.6,958.3,42.2,957.7,41.8z"/>
<ellipse cx="1052.8" cy="52.2" rx="43.2" ry="3.8"/>
<path d="M1049.6,21.1c-12.5,4.4-17.1,14.3-18,26.8c-0.8,0-1.6,0-2.3,0c-0.7,0-1.4,0-2.1,0c-1.4-11.1,6.1-26.2,22.5-28.8
	c-0.9-1.3-1.6-2.7-0.9-4.3c0.4-0.8,0.9-1.7,1.6-2.3c1.6-1.3,3.9-1,5.3,0.4c1.6,1.6,1.7,3.6,0.1,6.2c8.8,1.4,15.4,6,19.6,13.8
	c2.5,4.6,3.4,9.6,3,14.8c-14.3,0-28.5,0-42.8,0C1035.8,39.8,1038.1,29,1049.6,21.1z"/>
<path d="M1132.1,4.6c-16.1,0-29.1,13-29.1,29.1s13,29.1,29.1,29.1c16.1,0,29.1-13,29.1-29.1S1148.2,4.6,1132.1,4.6z M1146.2,35.7
	h-12v12h-4v-12h-12v-4h12v-12h4v12h12V35.7z"/>
<path d="M1220.8,1.4c-16.1,0-29.1,13-29.1,29.1s13,29.1,29.1,29.1c16.1,0,29.1-13,29.1-29.1S1236.8,1.4,1220.8,1.4z M1218.6,55
	c-0.1,0,0.7,0,0.7,0c0-0.4,0-0.9,0-1.3c0-5.9-1-11.8-1-17.7c0-1.7-0.6-1.8-2.2-1.8c-2.3,0-4.9,0-7.5,0c5.4-9.5,9.9-18.9,15.2-28.3
	c0.1,0-0.5,0-0.5,0c0,0.4,0,0.9,0,1.3c0,5.9,0.6,11.8,0.6,17.7c0,1.8,0.4,1.8,2.1,1.8c2.3,0,5.3,0,7.8,0
	C1228.5,36.3,1223.8,45.6,1218.6,55z"/>
<g>
	<circle cx="1306.9" cy="31.6" r="29.4"/>
	<path class="st17" d="M1301.8,19.7c8.1-0.8,8.2-0.6,8.2,7c0,5.3,0.1,10.6-0.1,15.9c-0.1,2.5,0.6,3.8,3.1,4.2
		c0.9,0.1,1.6,1.1,2.4,1.6c-0.9,0.3-1.9,0.8-2.8,0.8c-4.1,0.1-8.2,0.1-12.4,0c-0.7,0-1.4-0.6-2.1-1c0.5-0.4,1.1-1.2,1.7-1.2
		c3.3-0.4,4.1-2.3,3.9-5.5c-0.3-4.1,0-8.2-0.1-12.4c0-2.7,0.8-5.7-1.8-8C1301.7,21.1,1301.8,20.4,1301.8,19.7z"/>
	<path class="st17" d="M1310.2,11.4c-0.2,2.2-1.4,3.2-3.5,3.1c-2-0.1-3-1.2-3-3.2c0-2.1,1.2-3.3,3.3-3.2
		C1309.2,8.1,1310.2,9.4,1310.2,11.4z"/>
</g>
<path d="M1418.5,23c-0.1,0.5-0.3,0.9-0.6,1.2c-1.9,1.5-3.8,3-5.7,4.4c-0.2,0.1-0.2,0.3-0.2,0.5c0.2,1.6,0.2,3.3,0,4.9
	c0,0.2,0,0.3,0.2,0.5c1.9,1.5,3.7,2.9,5.6,4.4c0.6,0.5,0.8,1.1,0.6,1.7c0,0.1-0.1,0.3-0.2,0.4c-1.8,3.2-3.6,6.3-5.5,9.5
	c-0.5,0.8-1.1,1-2,0.7c-2.2-0.9-4.4-1.8-6.5-2.7c-0.2-0.1-0.4-0.1-0.6,0.1c-1.3,1-2.7,1.8-4.3,2.5c-0.2,0.1-0.3,0.2-0.3,0.4
	c-0.3,2.4-0.7,4.7-1,7.1c-0.1,0.8-0.7,1.3-1.5,1.3c-3.7,0-7.4,0-11.1,0c-0.8,0-1.4-0.5-1.5-1.3c-0.3-2.4-0.7-4.7-1-7.1
	c0-0.1-0.1-0.3-0.3-0.3c-1.5-0.7-3-1.5-4.3-2.5c-0.2-0.1-0.3-0.1-0.5,0c-2.2,0.9-4.4,1.8-6.5,2.6c-0.9,0.4-1.5,0.1-2-0.7
	c-1.8-3.1-3.6-6.3-5.4-9.4c-0.5-0.9-0.4-1.5,0.4-2.2c1.8-1.4,3.7-2.9,5.5-4.3c0.2-0.1,0.3-0.3,0.2-0.5c-0.2-1.6-0.2-3.2,0-4.9
	c0-0.2,0-0.3-0.2-0.5c-1.9-1.5-3.7-2.9-5.6-4.4c-0.7-0.6-0.9-1.2-0.4-2.1c1.8-3.2,3.6-6.3,5.5-9.5c0.5-0.8,1.1-1,2-0.7
	c2.2,0.9,4.4,1.8,6.6,2.7c0.2,0.1,0.4,0.1,0.5-0.1c1.3-1,2.7-1.8,4.2-2.5c0.2-0.1,0.3-0.2,0.3-0.5c0.3-2.3,0.7-4.7,1-7
	c0.1-0.8,0.7-1.3,1.5-1.3c3.7,0,7.4,0,11.1,0c0.9,0,1.4,0.5,1.5,1.4c0.3,2.3,0.7,4.7,1,7c0,0.1,0.1,0.3,0.3,0.3
	c1.5,0.7,3,1.5,4.3,2.5c0.2,0.1,0.3,0.1,0.5,0c2.2-0.9,4.4-1.8,6.5-2.6c0.9-0.4,1.5-0.2,2,0.7c1.8,3.2,3.7,6.3,5.5,9.5
	C1418.3,22.5,1418.4,22.8,1418.5,23z M1391,41.4c5.5,0,9.9-4.4,9.9-9.8c0-5.4-4.4-9.8-9.8-9.9c-5.5,0-9.9,4.3-9.9,9.8
	C1381.1,37,1385.5,41.4,1391,41.4z"/>
<g>
	<path d="M1489.9,59.3h-50.8c-0.7,0-1.3-0.6-1.3-1.3V6.7c0-0.7,0.6-1.3,1.3-1.3h50.8c0.7,0,1.3,0.6,1.3,1.3V58
		C1491.2,58.7,1490.6,59.3,1489.9,59.3z"/>
	<path class="st1" d="M1487.9,15.9h-46.8c-0.1,0-0.3-0.1-0.3-0.3v-8c0-0.1,0.1-0.3,0.3-0.3h46.8c0.1,0,0.3,0.1,0.3,0.3v8
		C1488.2,15.8,1488,15.9,1487.9,15.9z"/>
	<circle class="st1" cx="1475.6" cy="23.9" r="1.9"/>
	<circle class="st1" cx="1486.1" cy="23.9" r="1.9"/>
	<circle class="st1" cx="1486.1" cy="34.8" r="1.9"/>
	<circle class="st1" cx="1455.1" cy="23.9" r="1.9"/>
	<circle class="st1" cx="1465.6" cy="23.9" r="1.9"/>
	<circle class="st1" cx="1464.7" cy="34.8" r="1.9"/>
	<circle class="st1" cx="1444.2" cy="34.8" r="1.9"/>
	<circle class="st1" cx="1454.7" cy="34.8" r="1.9"/>
	<circle class="st1" cx="1464.7" cy="45.7" r="1.9"/>
	<circle class="st1" cx="1475.6" cy="45.7" r="1.9"/>
	<circle class="st1" cx="1486.5" cy="45.7" r="1.9"/>
	<circle class="st1" cx="1444.2" cy="45.7" r="1.9"/>
	<circle class="st1" cx="1454.7" cy="45.7" r="1.9"/>
	<circle class="st1" cx="1475.6" cy="34.4" r="3.7"/>
</g>
<path d="M1552.5,36.8c0,0.8,0,1.5,0,2.1c0,6.1,0,12.2,0,18.3c0,2.2,0.5,2.7,2.7,2.7c4.3,0,8.5,0,12.8,0c2.1,0,2.7-0.6,2.7-2.7
	c0-11,0-22,0-33c0-1.3-0.4-2.2-1.5-3c-7.9-6-15.7-12.1-23.5-18.2c-1.3-1-2.4-1.1-3.7,0c-7.5,6.1-15.1,12.1-22.6,18.2
	c-0.7,0.6-1.3,1.8-1.4,2.8c-0.1,11.1-0.1,22.1-0.1,33.2c0,2.1,0.6,2.7,2.7,2.7c4.2,0,8.4,0,12.6,0c2.2,0,2.8-0.6,2.8-2.8
	c0-6.1,0-12.2,0-18.3c0-0.6,0-1.3,0-2C1541.6,36.8,1546.9,36.8,1552.5,36.8z"/>
</svg>
