<svg height="511pt" viewBox="0 -3 511.99942 511" width="511pt" xmlns="http://www.w3.org/2000/svg"><path d="m394.238281 300.789062c1.152344-34.566406-10.1875-68.390624-31.925781-95.234374-19.75-24.390626-46.875-41.613282-77.054688-49.113282v-24.492187c0-9.027344-7.339843-16.371094-16.359374-16.371094h-8.382813v-105.078125c0-5.523438-4.476563-10-10-10-5.519531 0-10 4.476562-10 10v105.078125h-8.378906c-9.023438 0-16.363281 7.34375-16.363281 16.371094v24.488281c-3.097657.765625-6.175782 1.632812-9.214844 2.609375-57.65625 18.507813-97.75 71.625-99.761719 132.175781-2.640625 79.246094 59.6875 145.863282 138.9375 148.507813 1.625.050781 3.234375.078125 4.851563.078125 77.089843 0 141.066406-61.394532 143.652343-139.019532zm-133.722656 118.617188v-47.453125c14.585937-.382813 29.148437-1.613281 43.617187-3.675781-3.574218 15.230468-8.289062 30.289062-14.148437 45.082031-9.386719 3.164063-19.261719 5.230469-29.46875 6.046875zm-49.484375-6.0625c-5.808594-14.679688-10.511719-29.734375-14.078125-45.058594 14.453125 2.058594 28.996094 3.285156 43.5625 3.667969v47.445313c-10.242187-.824219-20.117187-2.894532-29.484375-6.054688zm-20.910156-86.722656c-.53125-5.496094-5.417969-9.53125-10.917969-8.992188-5.496094.527344-9.523437 5.414063-8.992187 10.914063.480468 4.976562 1.082031 9.9375 1.78125 14.878906-13.476563-3.015625-26.808594-6.824219-39.929688-11.410156-3.863281-12.667969-5.742188-26.167969-5.277344-40.121094.367188-10.996094 2.207032-21.703125 5.324219-31.910156 13.105469-4.578125 26.421875-8.382813 39.878906-11.390625-.496093 3.5-.945312 7.003906-1.328125 10.523437-.601562 5.488281 3.363282 10.425781 8.851563 11.027344.371093.042969.738281.0625 1.101562.0625 5.035157 0 9.367188-3.792969 9.929688-8.914063.613281-5.59375 1.371093-11.164062 2.277343-16.707031 15.800782-2.566406 31.734376-4.074219 47.699219-4.515625v111.878906c-15.960937-.445312-31.890625-1.953124-47.6875-4.515624-1.128906-6.898438-2.039062-13.835938-2.710937-20.808594zm22.550781-148.53125c1.179687-.375 2.359375-.738282 3.550781-1.078125.011719.0625.027344.128906.042969.195312.03125.160157.070313.320313.105469.480469.074218.339844.15625.679688.25 1.019531.046875.175781.097656.351563.148437.527344.09375.328125.199219.648437.304688.96875.058593.167969.113281.335937.171875.5.132812.355469.273437.710937.417968 1.058594.050782.117187.09375.238281.144532.355469.203125.460937.417968.914062.644531 1.359374.054687.109376.117187.210938.171875.316407.179688.339843.367188.675781.5625 1.003906.09375.15625.1875.304687.285156.457031.171875.28125.351563.554688.535156.828125.105469.15625.214844.3125.328126.464844.191406.269531.390624.53125.59375.792969.109374.140625.21875.28125.332031.417968.253906.316407.519531.621094.792969.917969.066406.078125.128906.152344.199218.226563.339844.367187.695313.722656 1.058594 1.070312.109375.105469.226562.207032.339844.308594.261718.242188.527344.480469.804687.710938.140625.121093.289063.238281.4375.355468.257813.207032.519531.40625.789063.601563.15625.117187.308594.226562.46875.335937.285156.203125.578125.394532.875.582032.140625.089843.28125.183593.425781.273437.441406.265625.890625.527344 1.355469.769531 3.691406 1.933594 7.640625 3.34375 11.707031 4.234375v21.914063c-14.566406.382812-29.113281 1.609375-43.566406 3.667968 3.566406-15.335937 8.273437-30.398437 14.082031-45.074218.550781-.183594 1.089844-.382813 1.640625-.5625zm70.003906 5.152344c.089844-.179688.171875-.363282.257813-.550782.195312-.410156.375-.824218.546875-1.246094.078125-.203124.160156-.402343.238281-.605468.171875-.46875.328125-.9375.472656-1.414063.042969-.144531.09375-.285156.136719-.425781.171875-.617188.324219-1.242188.449219-1.871094.007812-.035156.019531-.070312.027344-.105468 1.742187.503906 3.46875 1.046874 5.179687 1.625 5.859375 14.789062 10.574219 29.851562 14.148437 45.082031-14.46875-2.0625-29.03125-3.289063-43.617187-3.675781v-21.910157c4.0625-.890625 8.007813-2.296875 11.683594-4.226562 3.9375-2.050781 7.238281-5.15625 9.546875-8.972657.335937-.554687.640625-1.125.929687-1.703124zm-22.160156 168.703124v-111.878906c15.992187.445313 31.960937 1.957032 47.789063 4.53125 5.625 34.078125 5.625 68.738282 0 102.816406-15.828126 2.574219-31.796876 4.085938-47.789063 4.53125zm68.550781-103.351562c13.421875 3.003906 26.703125 6.796875 39.777344 11.359375 3.945312 12.757813 5.867188 26.292969 5.40625 40.171875-.371094 11.070312-2.195312 21.757812-5.277344 31.886719-13.117187 4.582031-26.441406 8.390625-39.90625 11.402343 2.199219-15.628906 3.324219-31.449218 3.324219-47.410156 0-15.960937-1.125-31.78125-3.324219-47.410156zm29.253906-13.046875c-10.878906-3.226563-21.875-5.957031-32.945312-8.183594-2.550781-12.320312-5.773438-24.511719-9.707031-36.527343 17.75 11.113281 32.421875 26.582031 42.652343 44.710937zm-122.542968-99.96875h14.71875.019531.019531 14.722656v36.761719c0 .796875-.21875 1.578125-.628906 2.257812-.410156.679688-.992187 1.230469-1.695312 1.597656-3.8125 2-8.105469 3.054688-12.417969 3.054688-4.308594 0-8.601563-1.054688-12.421875-3.058594-1.429688-.75-2.316406-2.222656-2.316406-3.851562zm-50.347656 55.117187c-3.933594 12.03125-7.1875 24.273438-9.75 36.664063-11.144532 2.242187-22.210938 4.992187-33.15625 8.242187 10.210937-18.230468 24.9375-33.761718 42.90625-44.90625zm-42.953126 165.699219c10.960938 3.253907 22.039063 6.011719 33.195313 8.253907 2.5625 12.378906 5.804687 24.605468 9.738281 36.625-17.859375-11.085938-32.660156-26.570313-42.933594-44.878907zm173.164063 44.863281c3.945313-12.042968 7.175781-24.261718 9.734375-36.613281 11.160156-2.242187 22.238281-5 33.203125-8.257812-10.300781 18.371093-25.136719 33.820312-42.9375 44.871093zm0 0"/><path d="m135.953125 435.234375-23.664063-63.289063c-.953124-2.550781-2.90625-4.601562-5.40625-5.679687-2.496093-1.078125-5.328124-1.089844-7.839843-.035156l-77.390625 32.578125c-4.945313 2.078125-7.367188 7.691406-5.488282 12.71875l14.773438 39.507812c-3.425781.148438-6.921875.839844-10.355469 2.121094-15.726562 5.878906-24.269531 22.023438-19.046875 35.988281 2.609375 6.988281 8.402344 12.5 15.886719 15.121094 3.265625 1.144531 6.726563 1.714844 10.238281 1.714844 3.960938 0 7.988282-.726563 11.859375-2.175781 7.300781-2.730469 13.328125-7.753907 16.976563-14.148438 3.925781-6.886719 4.683594-14.84375 2.074218-21.828125-.003906-.003906-.003906-.003906-.003906-.007813 0-.007812-.003906-.015624-.007812-.023437l-20.296875-54.28125 58.941406-24.808594 11.121094 29.742188c-3.472657.160156-6.96875.867187-10.351563 2.132812-15.722656 5.878907-24.269531 22.023438-19.046875 35.988281 2.613281 6.988282 8.402344 12.5 15.890625 15.121094 3.261719 1.144532 6.722656 1.714844 10.234375 1.714844 3.964844 0 7.988281-.730469 11.859375-2.175781 7.300782-2.730469 13.332032-7.753907 16.976563-14.148438 3.929687-6.890625 4.683593-14.851562 2.070312-21.839843 0 0-.003906-.003907-.003906-.007813zm-96.832031 44.515625c-1.3125 2.304688-3.722656 4.246094-6.609375 5.324219s-5.976563 1.191406-8.480469.316406c-1.09375-.382813-3.042969-1.316406-3.765625-3.25-1.164063-3.117187 1.554687-8.09375 7.316406-10.25 1.683594-.628906 3.328125-.90625 4.84375-.90625 3.671875 0 6.578125 1.632813 7.402344 3.839844h.003906c.722657 1.9375-.136719 3.917969-.710937 4.925781zm77.390625-32.574219c-1.3125 2.300781-3.722657 4.242188-6.605469 5.320313-2.886719 1.082031-5.976562 1.195312-8.480469.320312-1.097656-.386718-3.042969-1.316406-3.765625-3.25-1.167968-3.117187 1.550782-8.09375 7.316406-10.25 1.601563-.597656 3.269532-.902344 4.863282-.902344 1.273437 0 2.503906.195313 3.617187.585938 1.09375.382812 3.042969 1.316406 3.765625 3.25s-.132812 3.914062-.710937 4.925781zm0 0"/><path d="m491.417969 203.289062c-3.382813-1.265624-6.878907-1.972656-10.351563-2.132812l14.769532-39.5c1.878906-5.023438-.542969-10.636719-5.488282-12.71875l-77.390625-32.574219c-2.511719-1.058593-5.34375-1.042969-7.84375.035157-2.5 1.078124-4.449219 3.128906-5.402343 5.679687l-23.667969 63.292969v.003906c-.003907.003906-.003907.007812-.003907.007812-5.21875 13.960938 3.328126 30.101563 19.050782 35.980469 3.871094 1.445313 7.894531 2.171875 11.855468 2.171875 3.511719 0 6.976563-.570312 10.238282-1.710937 7.484375-2.621094 13.277344-8.132813 15.890625-15.125 5.222656-13.960938-3.324219-30.105469-19.046875-35.984375-3.4375-1.285156-6.933594-1.976563-10.359375-2.125l11.128906-29.753906 58.941406 24.808593-20.304687 54.308594c-5.222656 13.960937 3.320312 30.105469 19.046875 35.984375 3.90625 1.460938 7.894531 2.152344 11.765625 2.152344 11.695312 0 22.296875-6.320313 26.21875-16.816406 5.222656-13.960938-3.324219-30.105469-19.046875-35.984376zm-77.078125-3.59375c-.722656 1.933594-2.671875 2.867188-3.765625 3.25-2.503907.878907-5.59375.761719-8.480469-.316406-5.765625-2.15625-8.484375-7.132812-7.320312-10.25 1.167968-3.117187 6.480468-5.089844 12.25-2.933594 5.761718 2.15625 8.480468 7.132813 7.316406 10.25zm77.394531 32.574219c-1.167969 3.117188-6.484375 5.085938-12.25 2.933594s-8.480469-7.128906-7.316406-10.246094c.722656-1.9375 2.671875-2.867187 3.765625-3.25 1.113281-.390625 2.34375-.585937 3.617187-.585937 1.59375 0 3.261719.304687 4.863281.902344 5.765626 2.152343 8.484376 7.128906 7.320313 10.246093zm0 0"/><path d="m463.941406 426.726562c-18.367187-6.597656-32.6875-20.914062-39.285156-39.285156-2.007812-5.589844-7.144531-9.203125-13.085938-9.203125-5.941406 0-11.078124 3.613281-13.082031 9.203125-6.597656 18.371094-20.917969 32.6875-39.289062 39.285156-5.589844 2.007813-9.203125 7.144532-9.203125 13.085938 0 5.9375 3.613281 11.074219 9.203125 13.085938 18.371093 6.59375 32.691406 20.914062 39.289062 39.28125 2.003907 5.59375 7.140625 9.207031 13.082031 9.207031 5.941407 0 11.078126-3.613281 13.085938-9.203125 6.597656-18.371094 20.917969-32.691406 39.285156-39.285156 5.59375-2.011719 9.203125-7.144532 9.203125-13.085938s-3.609375-11.078125-9.203125-13.085938zm-52.371094 46.039063c-7.699218-13.863281-19.089843-25.253906-32.953124-32.953125 13.863281-7.699219 25.253906-19.089844 32.953124-32.953125 7.703126 13.863281 19.089844 25.253906 32.953126 32.953125-13.863282 7.699219-25.25 19.089844-32.953126 32.953125zm0 0"/><path d="m18.738281 181.164062c18.367188 6.59375 32.6875 20.914063 39.285157 39.285157 2.007812 5.589843 7.144531 9.203125 13.082031 9.203125 5.941406 0 11.078125-3.613282 13.085937-9.203125 6.597656-18.371094 20.917969-32.691407 39.289063-39.285157 5.589843-2.011718 9.203125-7.148437 9.203125-13.085937-.003906-5.941406-3.617188-11.078125-9.207032-13.085937-18.367187-6.59375-32.6875-20.914063-39.285156-39.285157-2.007812-5.59375-7.144531-9.203125-13.085937-9.203125-5.9375 0-11.074219 3.609375-13.082031 9.203125-6.597657 18.371094-20.917969 32.691407-39.285157 39.285157-5.59375 2.007812-9.207031 7.144531-9.207031 13.085937s3.613281 11.074219 9.207031 13.085937zm97.980469-7.347656c-.003906 0-.007812 0-.011719-.003906.003907.003906.007813.003906.011719.003906zm-45.613281-38.691406c7.703125 13.863281 19.089843 25.253906 32.953125 32.953125-13.863282 7.699219-25.25 19.085937-32.953125 32.953125-7.699219-13.863281-19.085938-25.253906-32.949219-32.953125 13.863281-7.699219 25.25-19.089844 32.949219-32.953125zm0 0"/><path d="m190.402344 294.046875c-.128906-.628906-.316406-1.257813-.566406-1.871094-.25-.597656-.5625-1.179687-.921876-1.71875-.359374-.550781-.78125-1.058593-1.238281-1.519531-2.332031-2.332031-5.78125-3.390625-9.03125-2.742188-.640625.132813-1.269531.320313-1.871093.570313-.601563.25-1.179688.5625-1.730469.921875-.539063.371094-1.046875.789062-1.519531 1.25-.460938.460938-.878907.96875-1.238282 1.519531-.359375.539063-.671875 1.121094-.921875 1.71875-.25.613281-.4375 1.242188-.570312 1.871094-.128907.648437-.1875 1.308594-.1875 1.960937 0 2.628907 1.058593 5.210938 2.917969 7.070313.472656.460937.980468.878906 1.523437 1.238281.550781.363282 1.128906.671875 1.726563.921875.601562.25 1.230468.441407 1.871093.570313.652344.128906 1.300781.199218 1.960938.199218 2.628906 0 5.199219-1.070312 7.070312-2.929687 1.859375-1.859375 2.929688-4.441406 2.929688-7.070313 0-.652343-.070313-1.3125-.203125-1.960937zm0 0"/></svg>