<?xml version="1.0" encoding="UTF-8"?>
<svg xmlns="http://www.w3.org/2000/svg" xmlns:xlink="http://www.w3.org/1999/xlink" width="24px" height="24px" viewBox="0 0 18 23" version="1.1">
<g id="surface1">
<path style=" stroke:none;fill-rule:nonzero;fill:rgb(0%,0%,0%);fill-opacity:1;" d="M 17.914062 8.839844 C 17.886719 3.949219 13.882812 0 8.957031 0 C 4.011719 0 0 3.980469 0 8.890625 C 0 10.71875 0.601562 12.492188 1.714844 13.945312 L 8.433594 22.714844 C 8.558594 22.882812 8.757812 22.980469 8.964844 22.980469 C 9.175781 22.980469 9.371094 22.882812 9.496094 22.714844 L 16.199219 13.96875 C 17.320312 12.5 17.925781 10.707031 17.914062 8.863281 Z M 9 13.007812 C 6.695312 13.007812 4.828125 11.152344 4.828125 8.863281 C 4.828125 6.578125 6.695312 4.722656 9 4.722656 C 11.304688 4.722656 13.171875 6.578125 13.171875 8.863281 C 13.171875 11.152344 11.304688 13.007812 9 13.007812 Z M 9 13.007812 "/>
<path style=" stroke:none;fill-rule:nonzero;fill:rgb(0%,0%,0%);fill-opacity:1;" d="M 17.984375 8.839844 C 17.953125 3.953125 13.957031 0.00390625 9.035156 0 L 9.035156 4.722656 L 9.070312 4.722656 C 11.375 4.722656 13.242188 6.578125 13.242188 8.863281 C 13.242188 11.152344 11.375 13.007812 9.070312 13.007812 L 9.035156 13.007812 L 9.035156 22.976562 C 9.242188 22.980469 9.441406 22.882812 9.566406 22.714844 L 16.265625 13.96875 C 17.390625 12.5 17.996094 10.707031 17.984375 8.863281 Z M 17.984375 8.839844 "/>
</g>
</svg>
